<svg width="72" height="73" viewBox="0 0 72 73" fill="none" xmlns="http://www.w3.org/2000/svg">
<g id="T_Emotes-1">
<path id="Vector" d="M22.3136 22.0347C21.9046 21.1259 21.2685 20.5352 20.5869 19.8082C19.2238 18.3088 19.1783 15.7642 20.496 14.2193C21.0413 13.5832 21.8138 13.0834 22.5408 12.629C23.495 12.0383 24.4037 11.4931 25.3579 10.9024C25.6305 10.3117 25.7669 9.53924 25.8577 8.85767C25.9032 8.44872 25.9486 8.03978 25.9486 7.63084C25.9032 6.17683 24.9035 4.26843 25.7214 3.04161C26.9028 1.31496 29.2656 0.542518 31.2194 1.26953C32.9915 1.90566 34.2638 3.6323 34.5364 5.49526C34.7636 7.35821 34.082 9.26661 32.7643 10.6752C33.9003 10.5389 35.1725 10.448 36.1721 11.0387C36.5357 11.2659 36.8992 11.5839 37.1718 11.902C38.444 13.2197 39.5346 14.7192 40.0344 16.4912C41.1703 16.2186 41.761 15.3099 42.6243 14.492C44.2601 12.9016 46.5774 11.8111 48.8039 12.3564C48.9402 12.4018 49.122 12.4473 49.2128 12.5836C49.44 12.8562 49.2128 13.2651 48.9402 13.5378C47.4862 15.1281 45.4869 16.0823 43.7603 17.4C42.7152 18.2179 41.7156 19.263 41.1249 20.4443C38.2623 23.3069 35.0362 25.8969 31.5829 28.0325C30.9922 28.396 30.447 28.7141 29.8108 28.9412C29.2656 28.8958 28.6294 28.8049 28.3114 28.396C28.1751 28.2142 28.0842 27.9871 27.9479 27.8053C27.7207 27.5327 27.4026 27.3509 27.0846 27.1692C24.9944 26.0332 23.3132 24.2157 22.3136 22.0347Z" fill="white"/>
<path id="Vector_2" d="M52.3936 52.205C52.2572 52.932 51.9392 53.6135 51.5757 54.2497C50.3943 56.4307 49.2583 58.6117 48.077 60.7927C47.3499 62.1104 46.6229 63.5645 46.6684 65.0639C46.7138 66.3362 47.2591 67.5176 48.0315 68.4718C48.804 69.4714 49.7582 70.2893 50.7124 71.1072C51.0759 71.4252 50.8941 71.8796 50.5306 72.1977C50.1671 72.5157 49.7127 72.652 49.2583 72.7429C48.9403 72.8338 48.6222 72.8792 48.3041 72.8792C48.0315 72.8792 47.7589 72.7884 47.4863 72.652C45.6233 71.9705 43.8967 70.88 42.3972 69.5623C42.3972 67.6539 42.6244 65.9727 43.1242 64.1097C43.5332 62.5194 43.8967 60.9745 44.3056 59.3842C44.76 57.6121 44.1693 55.9763 44.6691 54.2497C44.8963 53.3409 45.3961 52.5685 45.8959 51.796C46.6684 50.5238 44.8963 49.2969 44.0784 48.0701C42.5335 45.8436 41.1249 43.4809 39.8981 41.0726C39.3529 40.9818 38.7622 41.0727 38.1715 41.1181C38.7167 42.3904 38.3532 43.8444 37.9897 45.1621C37.1264 48.2519 36.2176 51.3871 34.7636 54.2497C35.1271 54.5677 35.0817 55.2039 35.0817 55.7037C35.0363 57.294 33.8549 58.7026 32.4009 59.3842C32.4917 60.202 31.5375 60.7019 30.9468 61.338C29.5837 62.8829 29.3111 65.0639 29.3565 67.1086C29.3565 68.0174 29.402 68.9261 29.1293 69.7895C28.7658 70.88 27.9025 71.7433 26.812 72.0614C25.9032 72.334 24.8582 72.334 23.904 72.2431C23.7676 72.2431 23.6313 72.1977 23.5405 72.1068C23.4496 72.0159 23.4041 71.8796 23.4041 71.7887C23.3587 71.2889 23.4041 70.7891 23.6313 70.3347C23.8131 69.9258 24.1311 69.6077 24.3583 69.2442C24.7218 68.7444 25.0399 68.1537 25.2217 67.563C25.4034 66.9723 25.7215 66.6542 25.8124 66.0181C25.9032 65.2911 25.5397 64.7458 25.6306 64.0188C25.7215 63.2918 25.9941 62.5648 26.6302 62.2013C26.7211 60.5655 26.812 58.9752 27.2209 57.3849C27.5844 56.1126 28.0843 55.4765 28.9021 54.5223C29.2656 54.1134 29.402 53.5681 29.5837 53.0228C29.7655 52.3867 29.9472 51.7506 29.9472 51.069C29.9472 49.615 29.1293 48.161 29.402 46.7524C30.0835 43.1628 29.72 39.3006 30.9923 35.8473C31.8102 33.6663 30.4016 31.6216 29.9926 29.3497C30.6742 29.1225 31.3103 28.759 31.8556 28.3955C35.0817 26.3507 38.126 23.988 40.8978 21.3071C40.8069 21.7615 40.7614 22.1705 40.8069 22.6703C40.8523 23.1246 40.9886 23.6245 41.0795 24.0788C41.5793 25.9418 42.0791 27.7593 42.579 29.6223C42.8062 30.4856 43.2605 31.3035 43.8967 31.9396C44.5328 32.5757 45.2598 33.0301 45.9414 33.6208C48.3041 35.7564 49.3038 38.9825 50.1671 42.0268C50.8487 44.3896 51.0759 46.8433 51.9392 49.1606C52.2118 50.1602 52.5753 51.2053 52.3936 52.205Z" fill="white"/>
</g>
</svg>
