<svg width="73" height="73" viewBox="0 0 73 73" fill="none" xmlns="http://www.w3.org/2000/svg">
<g id="T_emotes2">
<path id="Vector" d="M55.4158 24.6654C54.8727 23.8507 54.2208 23.3075 53.6776 22.4927C52.8085 21.2434 51.8308 20.1027 50.6358 19.1793C50.4728 19.0163 50.0926 19.0706 49.9296 18.9077C49.984 17.8756 49.984 16.8436 49.7667 15.8115C49.5494 14.7795 49.0062 13.8018 48.1371 13.2586C47.3767 12.7697 46.399 12.6067 45.5299 12.3352C44.0089 11.792 42.7596 10.6513 41.6189 9.56489C41.3473 9.2933 41.0214 9.02173 40.9671 8.6415C40.8585 8.31559 40.9671 7.98966 41.0214 7.66374C41.293 6.30578 41.456 4.94782 41.2387 3.58986C40.9671 2.2319 40.2066 0.928276 38.9573 0.385092C37.8709 -0.103774 36.7303 0.113486 35.5353 0.167805C33.6341 0.222123 31.8959 1.74303 31.57 3.58986C31.2984 5.05646 31.7873 6.74034 31.2441 8.15262C30.1577 7.82671 29.0171 7.71809 27.8764 7.82673C27.3875 7.88105 26.953 7.93535 26.5184 8.15262C25.8123 8.53285 25.3234 9.29331 24.7259 9.78218C23.7482 10.5426 22.4445 10.7599 21.1952 10.7599C19.9459 10.7599 18.6965 10.7056 17.5015 10.9772C16.5781 12.0636 16.1436 13.5302 16.4152 14.8881C16.5781 15.7029 16.904 16.409 17.067 17.2238C17.2843 18.4731 17.0127 19.7768 17.2299 21.0804C17.2843 21.5693 17.4472 22.0582 17.8275 22.3841C18.3163 22.8186 19.0768 22.8186 19.7286 22.7643C21.0866 22.6013 22.4445 22.2754 23.6938 21.7865C23.8568 21.7322 24.0198 21.6779 24.0741 21.515C24.1827 21.4063 24.1827 21.2434 24.1827 21.0804C24.1827 20.2656 23.9111 19.3965 23.4222 18.7447C22.7704 17.8756 21.7384 17.2238 21.5754 16.1917C21.5754 16.0831 21.5754 15.9745 21.6297 15.8659C21.7384 15.7572 21.9013 15.7029 22.0643 15.7029C23.6395 15.6486 25.2147 15.5942 26.7357 15.5399C26.3011 17.5497 27.3332 19.5595 27.1702 21.5693C27.0616 22.9816 27.1702 24.4482 27.4961 25.8061C27.6591 26.6209 27.9307 27.3814 27.9307 28.1961C27.9307 28.9566 27.7677 29.717 27.5504 30.4775C27.3875 31.1836 27.8764 31.8898 27.3875 32.433C26.4641 33.5737 24.9432 34.0625 23.8025 35.0403C22.3359 36.2896 21.9556 38.0278 21.684 39.9289C20.5434 41.1782 19.457 42.4819 19.2397 44.1658C17.3929 46.5558 16.2522 50.7926 19.457 52.6395C20.815 53.3999 22.4988 53.5085 24.0741 53.6172C25.6493 53.7258 27.2246 53.8888 28.7998 54.1604C29.3973 54.269 30.1034 54.432 30.375 54.9751C30.6466 55.627 30.212 56.3331 29.7232 56.8219C28.3652 58.1256 26.5184 58.7774 24.9432 59.8638C24.7259 60.0268 24.5086 60.244 24.4543 60.4613C24.4543 61.0045 25.1604 61.1131 25.6493 61.1131C29.18 60.8415 32.7107 60.3527 36.2414 59.6465C36.2414 59.4292 36.35 59.1033 36.2957 58.9404C36.1328 58.017 35.9698 57.0936 35.6982 56.2245C35.5352 55.5726 35.318 54.9751 34.8834 54.432C33.96 53.2913 32.2218 53.1283 31.1898 52.0963C30.4293 51.3901 30.1034 50.3581 29.5059 49.489C28.5825 48.2396 27.0073 47.5335 25.4863 47.6422C27.7677 46.2842 29.8861 44.2201 31.0811 41.8844C32.0045 41.7757 32.8737 41.2869 33.4169 40.5807C34.5032 42.8078 34.4489 45.0892 35.0464 47.4249C35.2094 48.1853 35.6982 48.9458 36.4044 49.326C36.513 49.3803 36.6759 49.4347 36.7846 49.5433C36.9475 49.8149 37.0019 50.1951 36.9476 50.521C36.7303 52.2592 37.4364 54.106 38.8487 55.1924C39.2833 55.5183 39.7721 55.7899 40.1523 56.2245C40.5326 56.659 40.6955 57.2022 40.8585 57.7454C41.2387 58.7774 41.5646 59.8095 41.7819 60.8958C42.1078 62.6883 41.9992 64.5352 41.9992 66.3277C41.9448 67.9572 41.9992 69.5868 42.2708 71.162C42.2708 71.325 42.3251 71.5423 42.4337 71.7052C42.5967 71.9768 42.9226 72.0311 43.2485 72.0311C44.3349 72.1398 45.4212 72.0311 46.4533 71.7595C46.6162 71.7052 46.7792 71.6509 46.8878 71.5423C46.9965 71.4336 46.9965 71.2707 46.9965 71.1077C46.9422 70.13 46.2903 69.3695 45.8015 68.5004C45.204 67.3597 45.2039 66.1104 45.5842 64.8611C45.8558 63.992 45.6928 63.0143 45.2039 62.1995C45.0953 62.0365 44.9867 61.9279 44.878 61.7649C44.6064 61.2218 44.878 60.3526 44.6064 59.8095C44.3349 59.2663 44.3349 58.6145 44.3349 58.017C44.3349 55.6813 44.1176 53.2369 43.9546 50.9013C43.9003 50.0322 43.5744 49.2174 43.0855 48.5112C42.651 47.9137 41.7819 47.4792 41.8362 46.773C41.9992 45.578 41.6189 44.2744 41.0214 43.2423C41.9992 40.798 42.1078 38.1364 41.6189 35.5291C41.5103 35.0403 41.8362 34.5514 42.2164 34.2798C42.5423 34.0082 43.1399 33.7909 43.3571 33.465C43.683 32.9761 44.2805 32.7589 44.8237 32.6502C47.7026 31.8898 50.9074 31.4552 53.6233 30.2602C54.1665 29.9887 54.7097 29.7171 55.1985 29.3368C55.5788 29.0652 55.9047 28.7393 56.122 28.3048C56.2306 28.0332 56.2849 27.7616 56.2849 27.4357C56.3392 26.4036 55.959 25.4802 55.4158 24.6654ZM49.1692 25.9691C47.3224 27.49 45.4212 28.9566 43.4658 30.2602C42.8683 30.6405 41.9449 31.238 41.293 30.5861C40.5326 29.8257 41.4017 28.9023 41.8362 28.2505C43.1399 26.2407 44.3892 24.2309 45.6385 22.2211C46.1817 22.6557 46.3989 23.4161 46.8335 24.0136C47.431 24.8827 48.4087 25.4802 49.3865 25.5345C49.4951 25.6432 49.3322 25.8604 49.1692 25.9691Z" fill="white"/>
</g>
</svg>
