<svg width="73" height="73" viewBox="0 0 73 73" fill="none" xmlns="http://www.w3.org/2000/svg">
<g id="T_emotes4">
<path id="Vector" d="M47.4883 1.95475C47.4445 1.38524 46.9188 0.947163 46.3931 0.728121C45.8236 0.552888 45.2541 0.596691 44.6846 0.640499C44.5093 0.640499 44.3779 0.684313 44.2465 0.728121C44.0712 0.815738 43.9836 0.990971 43.9398 1.1662C43.5017 2.26141 43.4579 3.44423 43.3703 4.58324C43.2827 5.9413 43.1951 7.29936 43.1513 8.61361C42.4065 8.39457 41.4866 8.43838 40.7418 8.65742C40.9609 7.25555 41.0485 6.02892 40.9609 4.62705C40.917 3.61946 40.7418 2.56806 39.9971 1.91094C39.1209 1.1662 37.8067 1.34143 36.6676 1.56048C36.361 1.60428 36.0105 1.69191 35.7477 1.86714C35.4848 2.08618 35.3534 2.43665 35.222 2.7433C34.4772 4.93372 34.2144 7.25554 34.4772 9.57738C34.521 10.0155 34.6087 10.4535 34.4772 10.8916C34.2144 11.7678 33.2068 12.2059 32.4182 12.6878C30.4907 13.8268 29.1764 16.0172 29.0888 18.2514C28.9136 22.5008 28.9136 26.7064 29.3079 30.9558C28.9574 31.2625 28.9574 31.6129 28.7384 32.0072C27.1613 34.8986 26.6356 38.2718 26.1537 41.5136C25.9346 42.8279 25.4527 44.0545 24.9708 45.3249C24.8394 45.7192 24.6642 46.1135 24.6642 46.5077C24.6642 47.4277 25.3213 48.2163 25.9784 48.8734C26.1975 49.9248 27.0736 50.5819 27.687 51.4581C28.3003 52.378 28.7384 53.4294 28.9574 54.4808C29.2202 55.8827 30.6659 57.0217 31.0602 58.4236C31.4983 59.9131 31.3668 61.534 31.8049 63.0234C32.4621 63.4615 32.7249 64.9072 32.6811 65.6958C32.6373 66.5281 32.6373 67.4043 32.2868 68.149C32.0678 68.5871 31.7611 69.0252 31.4983 69.4195C30.9288 70.2956 30.5783 71.3032 30.4907 72.3108C31.0164 72.7051 31.8049 72.6613 32.4182 72.3984C33.0316 72.1356 33.5573 71.6537 34.0392 71.2156C35.0905 70.2518 36.1419 69.2442 37.1933 68.2804C37.6752 67.7985 38.2009 67.3605 38.5514 66.7471C38.9019 66.1338 39.1209 65.4767 38.9457 64.8196C38.5514 63.1987 36.7553 62.1473 35.441 61.1397C35.3972 60.0007 35.2658 58.7741 35.2658 57.635C35.222 56.3646 35.1782 55.0942 34.8715 53.8675C34.5648 52.6409 33.8639 51.4581 32.8125 50.7571C32.6373 50.6257 32.5059 50.4067 32.3744 50.2314C34.0392 50.1876 35.7039 50.1438 37.4124 50.1C39.2523 50.0562 41.1799 50.0124 42.8884 50.6257C43.1075 50.4505 43.5893 50.5819 43.7646 50.801C43.896 51.02 43.9398 51.3266 43.9836 51.6333C44.0712 52.2904 44.3779 52.9476 44.6407 53.5609C44.9474 54.2618 45.2979 54.9627 45.7798 55.576C46.3055 56.1456 47.0502 56.5836 47.7949 56.5398C48.4083 55.1818 48.8025 54.0428 48.6711 52.5533C48.4959 50.6695 48.4521 49.0924 48.0578 47.2525C48.014 46.9896 47.8826 46.8144 47.8826 46.5077C47.8826 46.3763 47.8388 46.2011 47.7511 46.1573C47.6635 46.1135 47.5759 46.1135 47.4445 46.1135C46.1302 46.2887 44.8598 46.5077 43.5455 46.8144C43.0637 46.9458 42.4941 47.0334 42.0561 46.8144C40.8294 46.2011 39.4714 46.1135 38.1571 45.6316C37.9381 45.544 37.719 45.4563 37.5 45.3687C37.2372 45.2373 37.0181 45.1059 36.7991 44.9306C35.9667 44.4488 35.0467 44.2297 34.1268 44.0107C33.2944 43.8354 32.3744 43.9669 31.7173 44.5364C31.9364 44.1421 32.1554 43.7478 32.4182 43.3974C32.6811 43.0907 32.9878 42.8717 33.2506 42.6088C34.9153 41.2508 36.58 39.8051 37.8943 38.0966C39.2085 36.388 40.2599 34.3729 40.5228 32.2263C40.8294 29.992 39.8218 28.0207 38.8581 26.0055C38.1133 24.4722 39.6904 22.9389 41.1361 22.0189C42.757 20.9675 43.3703 18.9962 43.896 17.1562C43.9836 16.8058 44.0274 16.4115 44.0274 16.0172C44.9912 16.4991 46.0864 16.7181 47.1378 16.6305C47.5321 16.5867 47.9264 16.4991 48.2768 16.2801C48.8902 15.842 49.1092 15.0534 49.1092 14.2649C49.1968 11.2859 47.1378 8.74502 46.3931 5.85368C46.3055 5.4594 46.2178 5.06514 46.2617 4.67086C46.3055 4.27659 46.5245 3.88231 46.6997 3.53185C46.9626 3.22519 47.1816 2.52425 47.4883 1.95475Z" fill="white"/>
</g>
</svg>
