<svg width="72" height="72" viewBox="0 0 72 72" fill="none" xmlns="http://www.w3.org/2000/svg">
<g id="T_emotes15">
<path id="Vector" d="M20.4873 16.6486C20.5364 13.9941 20.9297 11.2905 21.6671 8.73426C21.7654 8.39016 22.0603 7.9969 22.3553 8.19353C22.5027 8.58679 22.6502 9.0292 22.7977 9.42246C23.1418 9.37331 23.4859 9.22584 23.7317 8.98005C24.0758 9.6191 24.3215 10.2581 24.469 10.9464C25.7471 10.7006 26.9761 10.3073 28.205 9.81573C29.1882 9.42247 30.2696 8.83258 30.6137 7.80027C30.7612 7.35785 30.7612 6.91543 30.8104 6.47301C30.8595 5.19492 30.8595 3.91683 30.9087 2.63873C30.9578 1.65558 31.8918 0.574118 32.8258 0.230016C33.8581 -0.163244 35.1362 -0.0649353 36.0702 0.62327C36.7093 1.06569 37.1517 1.65558 37.4958 2.34378C37.889 3.1303 38.184 3.96598 38.2823 4.85082C38.4298 6.12892 38.184 7.55448 37.6924 8.78342C38.8722 9.02921 40.052 9.07837 41.1826 9.52079C42.1166 9.37331 42.9523 9.86489 43.5422 10.6023C44.1321 11.3396 44.427 12.2736 44.5745 13.2076C44.9677 13.0601 45.066 13.5025 45.4101 13.6992C46.1475 14.1908 46.934 14.7315 47.6714 15.2231C48.9495 16.1079 50.2276 16.5503 51.3582 17.6318C51.604 17.8284 51.8006 18.0742 52.0464 18.2708C52.4888 18.6149 53.0296 18.8607 53.6195 18.959C54.406 19.0574 54.7501 18.7624 55.5366 18.7132C55.7332 18.7132 55.979 18.6641 56.1756 18.7624C56.6672 18.9099 56.8638 19.4998 56.913 19.9913C56.9621 20.6795 56.7655 21.3678 56.3723 21.8593C55.979 22.3509 55.2417 22.6458 54.6026 22.5475C54.2585 22.4984 53.9635 22.3017 53.6686 22.2034C52.8821 21.8593 51.9972 21.6627 51.1124 21.6627C49.7852 21.122 48.4087 20.4337 47.3273 19.4998C46.7865 19.0082 45.7542 18.8607 45.066 18.5166C44.5745 18.2708 43.8862 18.4675 43.3947 18.4675C43.3947 19.5489 42.6081 20.6304 41.9199 21.4661C41.7233 22.8425 41.0843 24.268 40.3961 25.4478C40.4452 27.5616 39.2163 29.8228 39.2163 31.9366C39.2163 33.2639 39.5112 34.6894 40.5927 35.5251C42.2149 36.8032 43.493 38.6712 44.7711 40.3426C45.066 40.7358 45.2627 41.1291 45.4101 41.5715C46.1967 43.4886 47.4256 45.2091 49.0478 46.5856C49.4902 46.9297 49.6869 47.4704 49.6869 48.0111C49.6869 48.7485 49.5885 49.4858 49.3919 50.2232C49.2936 50.7148 49.2444 51.3538 48.8512 51.6979C48.3596 52.1404 47.6714 52.337 47.2781 52.8286C47.3764 53.271 46.934 53.8609 46.6882 54.2541C46.4424 54.6474 46.0983 54.9423 45.8525 55.2864C45.4593 55.778 45.1644 56.3187 45.0169 56.9086C44.6728 58.0393 44.8694 59.3174 44.8694 60.5463C44.9186 60.4971 44.9677 60.6938 44.9186 60.7429C44.8694 60.7921 44.8694 60.8412 44.8694 60.8904C44.9677 61.4311 45.2135 61.9227 45.5576 62.316C46.0492 62.9059 46.7374 63.25 47.4256 63.6432C48.2613 64.1348 49.097 64.7738 49.8343 65.4129C49.8343 65.6095 49.7851 65.9045 49.7851 66.1011C49.7851 66.1503 49.7852 66.1994 49.736 66.2486C49.6868 66.2977 49.6377 66.2977 49.5885 66.2977C48.4579 66.4452 47.2781 66.5435 46.295 66.0028C44.5253 65.0688 42.4115 65.1671 40.3961 65.2162C39.9045 63.5941 39.7079 61.9719 40.1994 60.3497C40.4944 59.2682 40.5927 57.9901 41.1826 57.0561C40.7402 55.7289 40.9368 54.0575 41.3792 52.7794C41.6742 51.9929 42.1166 51.2555 42.559 50.5673C42.7556 50.2724 42.6573 49.5842 42.7556 49.2401C41.1334 47.8636 39.4621 46.5364 37.889 45.16C37.3975 44.7667 36.955 44.3243 36.5618 43.8819C36.0211 43.292 35.5786 42.5546 35.0379 42.0139C34.8413 42.2597 34.3989 42.0631 34.1039 41.9156C33.0224 46.0448 33.3174 50.7639 31.1053 54.4016C30.6137 55.2373 29.7289 55.4831 28.9915 56.1713C28.5491 56.5645 28.1558 57.0561 27.91 57.5968C27.7626 57.9409 27.3693 58.4325 27.0252 58.6783C25.4522 59.8581 24.1741 61.382 23.3384 63.1025C22.4536 64.9213 23.4859 67.0351 23.6825 69.0505C23.7317 69.6896 23.83 70.3778 23.535 70.9677C23.2401 71.5084 22.6502 71.8525 22.0603 71.9508C21.4704 72.0492 20.8314 72 20.2415 71.8034C20.094 71.8525 19.9465 71.6559 19.8482 71.5576C19.2583 71.0169 19.3075 70.0829 19.5533 69.2963C19.8482 68.559 20.2906 67.8708 20.4873 67.0842C20.5856 66.6418 20.5856 66.1502 20.4381 65.7078C20.2907 65.1671 19.9466 64.6264 19.9466 64.0365C19.9466 63.3974 20.094 62.6109 20.3889 62.021C20.8805 61.1362 21.323 60.2022 21.8145 59.3174C22.1586 58.6291 22.1095 57.8918 22.1095 57.1053C22.1095 56.712 22.0603 56.3187 22.1095 55.9255C22.2078 54.9423 22.7485 54.0575 23.4367 53.3693C24.0266 52.7794 24.9114 52.4353 25.403 51.7963C26.0421 51.0097 26.2387 49.535 26.337 48.601C26.8778 43.4395 24.8623 38.5237 25.5013 33.3622C25.6488 32.1824 25.698 31.4942 26.2879 30.5111C26.8286 29.6754 27.3202 28.7905 27.8609 27.9549C28.4508 26.9717 28.1558 25.7428 28.2542 24.6122C28.3033 24.0223 28.3525 23.4324 28.2542 22.8425C28.1558 22.2526 27.8609 21.6627 27.3202 21.3678C27.0252 21.1711 26.4845 20.9745 26.3862 20.6304C26.0421 21.5644 25.2555 22.2034 24.5673 22.8916C24.3707 23.0883 24.1741 23.2849 23.9774 23.4815C23.7808 23.6781 23.6334 23.8256 23.3876 24.0223C22.9943 24.3172 22.5519 24.5138 22.1586 24.7105C21.4704 25.0546 20.7822 25.3495 20.0448 25.1529C19.8482 25.1037 19.6516 25.0546 19.5041 24.9071C19.2092 24.6613 19.2092 24.2189 19.2092 23.8256C18.9634 23.8256 18.9142 23.4815 18.8651 23.2357C18.7176 22.0068 19.2583 20.827 19.7991 19.6964C20.3398 18.5658 20.4873 17.8776 20.4873 16.6486Z" fill="white"/>
</g>
</svg>
