<svg width="72" height="73" viewBox="0 0 72 73" fill="none" xmlns="http://www.w3.org/2000/svg">
<g id="T_emotes16">
<path id="Vector" d="M21.5816 20.4576C21.5299 19.0636 21.4783 17.6179 21.4783 16.2239C21.4783 15.9658 21.4783 15.656 21.5816 15.3979C21.6848 15.1397 21.8398 14.9332 21.9946 14.7783C22.5626 14.1071 23.2338 13.3843 24.0599 13.0745C24.0082 13.0745 24.2664 12.9196 24.2664 12.9196C24.4729 12.5065 24.5762 12.3 24.9892 12.0419C25.712 11.6288 26.693 11.5256 27.106 10.8027C27.4158 10.2864 27.2609 9.61524 27.106 9.0473C26.7962 7.91144 26.5381 6.67232 26.3832 5.53645C26.2283 4.34895 26.0734 3.05821 26.693 1.97398C27.3126 0.941372 28.5001 0.373426 29.7392 0.218535C30.8234 0.115275 31.9593 0.321783 32.7337 1.04461C33.0951 1.40602 33.3533 1.87069 33.5598 2.33536C34.3859 4.24569 34.7473 6.36254 34.5408 8.47938C35.5734 8.58264 36.606 8.63427 37.6386 8.73753C38 8.78916 38.3615 8.78916 38.7229 8.73753C39.0843 8.6859 39.4973 8.53103 39.8587 8.42776C40.9946 8.11798 42.2337 8.22123 43.2663 8.73753C46.0027 8.01471 48.3777 9.66687 50.9076 10.9576C52.3533 11.7321 54.4185 12.0935 54.8315 13.694C54.9348 14.2103 54.625 14.7266 54.1603 14.9848C53.7472 15.2429 45.5896 15.3978 45.125 15.1913C44.6603 14.9332 43.163 14.7783 42.75 14.4685C41.356 13.3326 47.1386 12.8679 45.3315 12.9196C43.2147 12.9712 41.769 14.1587 40.0652 12.9196C41.2527 16.6886 42.5435 19.4766 42.3886 23.4006C42.2853 26.2402 41.4592 29.2348 42.5435 31.8679C43.163 33.3652 44.4022 34.6043 45.125 36.05C45.538 36.8244 46.3641 37.5989 46.8288 38.3733C47.3967 39.3027 47.913 40.2836 48.3261 41.3162C48.9973 42.9684 49.2554 44.7238 49.1522 46.4793C49.875 46.8923 50.1332 47.8733 50.5978 48.5445C51.6304 50.145 53.5924 50.8162 54.7799 52.2619C55.4511 53.0879 55.8641 54.1722 55.8641 55.2564C57.1032 56.9086 57.981 58.9222 58.3424 60.9357C58.8071 63.5689 60.5624 66.1504 62.4211 68.0608C62.6793 68.3189 62.8342 68.7319 62.731 69.0934C62.5761 69.6097 62.0081 69.6613 61.5434 69.6613C60.7174 69.6613 59.788 69.558 59.0652 69.1966C58.2907 68.7836 57.7228 68.0091 57.2065 67.2863C56.5869 66.4086 55.9157 65.5309 55.7092 64.4466C55.6059 63.9303 55.606 63.414 55.5027 62.8977C55.2962 61.6586 54.7282 60.5227 53.9021 59.645C52.3532 57.9928 49.7717 57.0635 49.1005 54.895C48.3261 54.2755 47.5517 53.5526 47.2419 52.5717C46.9321 51.5907 46.4158 50.713 45.693 50.0418C43.9375 48.4412 42.1305 46.6342 41.356 44.3624C40.943 43.0717 40.788 41.6777 39.9619 40.645C39.7554 41.1614 39.1359 41.626 38.6196 41.8325C38.1549 42.0391 37.587 42.0907 37.0707 42.1423C36.9158 42.3489 36.5027 42.5037 36.3478 42.6586C36.1413 42.8652 36.0381 43.2266 35.9864 43.5364C35.5218 45.963 34.644 48.2863 33.4565 50.4032C33.5082 51.3842 33.3016 52.4168 33.25 53.3977C33.25 54.0173 33.1984 54.6369 32.837 55.1532C33.5082 56.7537 33.4566 58.6124 32.837 60.2129C32.2691 61.7619 32.4756 63.4657 32.1142 65.1178C31.856 66.3569 32.0626 67.6477 31.8044 68.8868C31.6495 69.5064 31.443 70.126 31.1848 70.6939C30.875 71.3135 30.4104 71.9846 29.6875 72.1395C29.1196 72.2944 28.5 72.0879 27.9837 71.8814C27.6223 71.7265 27.2609 71.4683 27.2093 71.1069C27.1577 70.9004 27.2609 70.6939 27.3126 70.539C27.7256 69.4031 28.2935 68.3705 28.9131 67.3379C29.1712 66.8732 29.2229 66.3053 29.0164 65.789C28.4484 64.4983 28.6033 63.7238 28.5 62.5879C28.3452 60.4711 28.6033 58.4059 28.6033 56.289C28.6033 54.8434 28.0354 53.501 28.2935 52.0554C28.5517 50.3516 27.4675 48.3896 27.674 46.6858C27.7256 46.2728 27.8288 45.9114 27.8805 45.4983C27.9837 45.0336 28.087 44.5173 28.1903 44.0527C28.5517 42.4005 27.9321 40.9032 28.5 39.3027C29.068 37.7021 29.8424 36.2565 30.6685 34.7592C31.7527 32.7456 30.3071 30.4223 29.6875 28.2022C29.068 25.9821 27.8805 23.8652 25.9702 22.5228C26.1767 23.2457 26.1251 23.9685 25.7637 24.6397C25.4022 25.3109 24.8859 25.9304 24.3696 26.4984C24.2147 26.7049 24.4213 28.5636 24.3696 28.925C24.318 29.6994 23.9566 30.3706 23.9049 31.1451C23.6984 32.9005 24.4213 34.6559 25.1441 36.2049C25.299 36.463 25.4022 36.7728 25.5571 37.0309C26.0734 37.857 26.7446 38.6315 27.5191 39.1994C27.5191 39.5092 27.8805 39.5092 27.7772 39.819C27.7256 40.0255 27.4158 40.1288 27.2093 40.0771C27.0028 40.0255 26.7963 39.819 26.6414 39.6641C26.1251 39.1478 25.6604 38.6315 25.1441 38.1152C25.0408 39.0445 25.3506 39.8706 25.7637 40.6967C26.1251 41.3679 26.6414 41.9358 26.693 42.7103C26.693 42.8135 26.693 42.9684 26.6414 43.0201C26.4865 43.1749 26.2283 42.9684 26.1251 42.8135C24.9892 41.2646 23.9566 39.6124 23.0273 37.9086C22.6142 37.1342 22.2528 36.3598 21.8914 35.5337C21.4267 34.6043 21.0137 33.6233 20.6006 32.6424C20.2392 31.7646 19.981 30.8869 19.8778 29.9576C19.7229 28.7701 19.7745 27.8407 19.7229 26.6533C19.7229 25.9821 19.7229 25.2076 20.2392 24.7429C20.3941 24.2266 20.4457 24.0717 20.7039 23.6071C21.3751 22.4196 21.6332 21.7484 21.5816 20.4576Z" fill="white"/>
</g>
</svg>
