<svg width="73" height="73" viewBox="0 0 73 73" fill="none" xmlns="http://www.w3.org/2000/svg">
<g id="T_emotes5">
<path id="Vector" d="M22.0816 20.4576C22.0299 19.0636 21.9783 17.6179 21.9783 16.2239C21.9783 15.9658 21.9783 15.656 22.0816 15.3979C22.1848 15.1397 22.3398 14.9332 22.4946 14.7783C23.0626 14.1071 23.7338 13.3843 24.5599 13.0745C24.5082 13.0745 24.7664 12.9196 24.7664 12.9196C24.9729 12.5065 25.0762 12.3 25.4892 12.0419C26.212 11.6288 27.193 11.5256 27.606 10.8027C27.9158 10.2864 27.7609 9.61524 27.606 9.0473C27.2962 7.91144 27.0381 6.67232 26.8832 5.53645C26.7283 4.34895 26.5734 3.05821 27.193 1.97398C27.8126 0.941372 29.0001 0.373426 30.2392 0.218535C31.3234 0.115275 32.4593 0.321783 33.2337 1.04461C33.5951 1.40602 33.8533 1.87069 34.0598 2.33536C34.8859 4.24569 35.2473 6.36254 35.0408 8.47938C36.0734 8.58264 37.106 8.63427 38.1386 8.73753C38.5 8.78916 38.8615 8.78916 39.2229 8.73753C39.5843 8.6859 39.9973 8.53103 40.3587 8.42776C41.4946 8.11798 42.7337 8.22123 43.7663 8.73753C46.5027 8.01471 48.8777 9.66687 51.4076 10.9576C52.8533 11.7321 54.9185 12.0935 55.3315 13.694C55.4348 14.2103 55.125 14.7266 54.6603 14.9848C54.2472 15.2429 46.0896 15.3978 45.625 15.1913C45.1603 14.9332 43.663 14.7783 43.25 14.4685C41.856 13.3326 47.6386 12.8679 45.8315 12.9196C43.7147 12.9712 42.269 14.1587 40.5652 12.9196C41.7527 16.6886 43.0435 19.4766 42.8886 23.4006C42.7853 26.2402 41.9592 29.2348 43.0435 31.8679C43.663 33.3652 44.9022 34.6043 45.625 36.05C46.038 36.8244 46.8641 37.5989 47.3288 38.3733C47.8967 39.3027 48.413 40.2836 48.8261 41.3162C49.4973 42.9684 49.7554 44.7238 49.6522 46.4793C50.375 46.8923 50.6332 47.8733 51.0978 48.5445C52.1304 50.145 54.0924 50.8162 55.2799 52.2619C55.9511 53.0879 56.3641 54.1722 56.3641 55.2564C57.6032 56.9086 58.481 58.9222 58.8424 60.9357C59.3071 63.5689 61.0624 66.1504 62.9211 68.0608C63.1793 68.3189 63.3342 68.7319 63.231 69.0934C63.0761 69.6097 62.5081 69.6613 62.0434 69.6613C61.2174 69.6613 60.288 69.558 59.5652 69.1966C58.7907 68.7836 58.2228 68.0091 57.7065 67.2863C57.0869 66.4086 56.4157 65.5309 56.2092 64.4466C56.1059 63.9303 56.106 63.414 56.0027 62.8977C55.7962 61.6586 55.2282 60.5227 54.4021 59.645C52.8532 57.9928 50.2717 57.0635 49.6005 54.895C48.8261 54.2755 48.0517 53.5526 47.7419 52.5717C47.4321 51.5907 46.9158 50.713 46.193 50.0418C44.4375 48.4412 42.6305 46.6342 41.856 44.3624C41.443 43.0717 41.288 41.6777 40.4619 40.645C40.2554 41.1614 39.6359 41.626 39.1196 41.8325C38.6549 42.0391 38.087 42.0907 37.5707 42.1423C37.4158 42.3489 37.0027 42.5037 36.8478 42.6586C36.6413 42.8652 36.5381 43.2266 36.4864 43.5364C36.0218 45.963 35.144 48.2863 33.9565 50.4032C34.0082 51.3842 33.8016 52.4168 33.75 53.3977C33.75 54.0173 33.6984 54.6369 33.337 55.1532C34.0082 56.7537 33.9566 58.6124 33.337 60.2129C32.7691 61.7619 32.9756 63.4657 32.6142 65.1178C32.356 66.3569 32.5626 67.6477 32.3044 68.8868C32.1495 69.5064 31.943 70.126 31.6848 70.6939C31.375 71.3135 30.9104 71.9846 30.1875 72.1395C29.6196 72.2944 29 72.0879 28.4837 71.8814C28.1223 71.7265 27.7609 71.4683 27.7093 71.1069C27.6577 70.9004 27.7609 70.6939 27.8126 70.539C28.2256 69.4031 28.7935 68.3705 29.4131 67.3379C29.6712 66.8732 29.7229 66.3053 29.5164 65.789C28.9484 64.4983 29.1033 63.7238 29 62.5879C28.8452 60.4711 29.1033 58.4059 29.1033 56.289C29.1033 54.8434 28.5354 53.501 28.7935 52.0554C29.0517 50.3516 27.9675 48.3896 28.174 46.6858C28.2256 46.2728 28.3288 45.9114 28.3805 45.4983C28.4837 45.0336 28.587 44.5173 28.6903 44.0527C29.0517 42.4005 28.4321 40.9032 29 39.3027C29.568 37.7021 30.3424 36.2565 31.1685 34.7592C32.2527 32.7456 30.8071 30.4223 30.1875 28.2022C29.568 25.9821 28.3805 23.8652 26.4702 22.5228C26.6767 23.2457 26.6251 23.9685 26.2637 24.6397C25.9022 25.3109 25.3859 25.9304 24.8696 26.4984C24.7147 26.7049 24.9213 28.5636 24.8696 28.925C24.818 29.6994 24.4566 30.3706 24.4049 31.1451C24.1984 32.9005 24.9213 34.6559 25.6441 36.2049C25.799 36.463 25.9022 36.7728 26.0571 37.0309C26.5734 37.857 27.2446 38.6315 28.0191 39.1994C28.0191 39.5092 28.3805 39.5092 28.2772 39.819C28.2256 40.0255 27.9158 40.1288 27.7093 40.0771C27.5028 40.0255 27.2963 39.819 27.1414 39.6641C26.6251 39.1478 26.1604 38.6315 25.6441 38.1152C25.5408 39.0445 25.8506 39.8706 26.2637 40.6967C26.6251 41.3679 27.1414 41.9358 27.193 42.7103C27.193 42.8135 27.193 42.9684 27.1414 43.0201C26.9865 43.1749 26.7283 42.9684 26.6251 42.8135C25.4892 41.2646 24.4566 39.6124 23.5273 37.9086C23.1142 37.1342 22.7528 36.3598 22.3914 35.5337C21.9267 34.6043 21.5137 33.6233 21.1006 32.6424C20.7392 31.7646 20.481 30.8869 20.3778 29.9576C20.2229 28.7701 20.2745 27.8407 20.2229 26.6533C20.2229 25.9821 20.2229 25.2076 20.7392 24.7429C20.8941 24.2266 20.9457 24.0717 21.2039 23.6071C21.8751 22.4196 22.1332 21.7484 22.0816 20.4576Z" fill="white"/>
</g>
</svg>
