<svg width="72" height="73" viewBox="0 0 72 73" fill="none" xmlns="http://www.w3.org/2000/svg">
<g id="T_emotes17">
<path id="Vector" d="M54.9158 24.6654C54.3727 23.8507 53.7208 23.3075 53.1776 22.4927C52.3085 21.2434 51.3308 20.1027 50.1358 19.1793C49.9728 19.0163 49.5926 19.0706 49.4296 18.9077C49.484 17.8756 49.484 16.8436 49.2667 15.8115C49.0494 14.7795 48.5062 13.8018 47.6371 13.2586C46.8767 12.7697 45.899 12.6067 45.0299 12.3352C43.5089 11.792 42.2596 10.6513 41.1189 9.56489C40.8473 9.2933 40.5214 9.02173 40.4671 8.6415C40.3585 8.31559 40.4671 7.98966 40.5214 7.66374C40.793 6.30578 40.956 4.94782 40.7387 3.58986C40.4671 2.2319 39.7066 0.928276 38.4573 0.385092C37.3709 -0.103774 36.2303 0.113486 35.0353 0.167805C33.1341 0.222123 31.3959 1.74303 31.07 3.58986C30.7984 5.05646 31.2873 6.74034 30.7441 8.15262C29.6577 7.82671 28.5171 7.71809 27.3764 7.82673C26.8875 7.88105 26.453 7.93535 26.0184 8.15262C25.3123 8.53285 24.8234 9.29331 24.2259 9.78218C23.2482 10.5426 21.9445 10.7599 20.6952 10.7599C19.4459 10.7599 18.1965 10.7056 17.0015 10.9772C16.0781 12.0636 15.6436 13.5302 15.9152 14.8881C16.0781 15.7029 16.404 16.409 16.567 17.2238C16.7843 18.4731 16.5127 19.7768 16.7299 21.0804C16.7843 21.5693 16.9472 22.0582 17.3275 22.3841C17.8163 22.8186 18.5768 22.8186 19.2286 22.7643C20.5866 22.6013 21.9445 22.2754 23.1938 21.7865C23.3568 21.7322 23.5198 21.6779 23.5741 21.515C23.6827 21.4063 23.6827 21.2434 23.6827 21.0804C23.6827 20.2656 23.4111 19.3965 22.9222 18.7447C22.2704 17.8756 21.2384 17.2238 21.0754 16.1917C21.0754 16.0831 21.0754 15.9745 21.1297 15.8659C21.2384 15.7572 21.4013 15.7029 21.5643 15.7029C23.1395 15.6486 24.7147 15.5942 26.2357 15.5399C25.8011 17.5497 26.8332 19.5595 26.6702 21.5693C26.5616 22.9816 26.6702 24.4482 26.9961 25.8061C27.1591 26.6209 27.4307 27.3814 27.4307 28.1961C27.4307 28.9566 27.2677 29.717 27.0504 30.4775C26.8875 31.1836 27.3764 31.8898 26.8875 32.433C25.9641 33.5737 24.4432 34.0625 23.3025 35.0403C21.8359 36.2896 21.4556 38.0278 21.184 39.9289C20.0434 41.1782 18.957 42.4819 18.7397 44.1658C16.8929 46.5558 15.7522 50.7926 18.957 52.6395C20.315 53.3999 21.9988 53.5085 23.5741 53.6172C25.1493 53.7258 26.7246 53.8888 28.2998 54.1604C28.8973 54.269 29.6034 54.432 29.875 54.9751C30.1466 55.627 29.712 56.3331 29.2232 56.8219C27.8652 58.1256 26.0184 58.7774 24.4432 59.8638C24.2259 60.0268 24.0086 60.244 23.9543 60.4613C23.9543 61.0045 24.6604 61.1131 25.1493 61.1131C28.68 60.8415 32.2107 60.3527 35.7414 59.6465C35.7414 59.4292 35.85 59.1033 35.7957 58.9404C35.6328 58.017 35.4698 57.0936 35.1982 56.2245C35.0352 55.5726 34.818 54.9751 34.3834 54.432C33.46 53.2913 31.7218 53.1283 30.6898 52.0963C29.9293 51.3901 29.6034 50.3581 29.0059 49.489C28.0825 48.2396 26.5073 47.5335 24.9863 47.6422C27.2677 46.2842 29.3861 44.2201 30.5811 41.8844C31.5045 41.7757 32.3737 41.2869 32.9169 40.5807C34.0032 42.8078 33.9489 45.0892 34.5464 47.4249C34.7094 48.1853 35.1982 48.9458 35.9044 49.326C36.013 49.3803 36.1759 49.4347 36.2846 49.5433C36.4475 49.8149 36.5019 50.1951 36.4476 50.521C36.2303 52.2592 36.9364 54.106 38.3487 55.1924C38.7833 55.5183 39.2721 55.7899 39.6523 56.2245C40.0326 56.659 40.1955 57.2022 40.3585 57.7454C40.7387 58.7774 41.0646 59.8095 41.2819 60.8958C41.6078 62.6883 41.4992 64.5352 41.4992 66.3277C41.4448 67.9572 41.4992 69.5868 41.7708 71.162C41.7708 71.325 41.8251 71.5423 41.9337 71.7052C42.0967 71.9768 42.4226 72.0311 42.7485 72.0311C43.8349 72.1398 44.9212 72.0311 45.9533 71.7595C46.1162 71.7052 46.2792 71.6509 46.3878 71.5423C46.4965 71.4336 46.4965 71.2707 46.4965 71.1077C46.4422 70.13 45.7903 69.3695 45.3015 68.5004C44.704 67.3597 44.7039 66.1104 45.0842 64.8611C45.3558 63.992 45.1928 63.0143 44.7039 62.1995C44.5953 62.0365 44.4867 61.9279 44.378 61.7649C44.1064 61.2218 44.378 60.3526 44.1064 59.8095C43.8349 59.2663 43.8349 58.6145 43.8349 58.017C43.8349 55.6813 43.6176 53.2369 43.4546 50.9013C43.4003 50.0322 43.0744 49.2174 42.5855 48.5112C42.151 47.9137 41.2819 47.4792 41.3362 46.773C41.4992 45.578 41.1189 44.2744 40.5214 43.2423C41.4992 40.798 41.6078 38.1364 41.1189 35.5291C41.0103 35.0403 41.3362 34.5514 41.7164 34.2798C42.0423 34.0082 42.6399 33.7909 42.8571 33.465C43.183 32.9761 43.7805 32.7589 44.3237 32.6502C47.2026 31.8898 50.4074 31.4552 53.1233 30.2602C53.6665 29.9887 54.2097 29.7171 54.6985 29.3368C55.0788 29.0652 55.4047 28.7393 55.622 28.3048C55.7306 28.0332 55.7849 27.7616 55.7849 27.4357C55.8392 26.4036 55.459 25.4802 54.9158 24.6654ZM48.6692 25.9691C46.8224 27.49 44.9212 28.9566 42.9658 30.2602C42.3683 30.6405 41.4449 31.238 40.793 30.5861C40.0326 29.8257 40.9017 28.9023 41.3362 28.2505C42.6399 26.2407 43.8892 24.2309 45.1385 22.2211C45.6817 22.6557 45.8989 23.4161 46.3335 24.0136C46.931 24.8827 47.9087 25.4802 48.8865 25.5345C48.9951 25.6432 48.8322 25.8604 48.6692 25.9691Z" fill="white"/>
</g>
</svg>
