<svg width="73" height="73" viewBox="0 0 73 73" fill="none" xmlns="http://www.w3.org/2000/svg">
<g id="T_emotes12">
<path id="Vector" d="M22.0356 11.4342C20.9745 10.6256 20.166 9.41287 19.8628 8.09904C19.7617 7.74532 19.7617 7.3916 19.8122 7.08841C19.9133 6.68416 20.2165 6.38097 20.5197 6.07778C21.2776 5.37033 22.1872 4.81449 23.1979 4.41024C24.158 5.72406 24.8149 7.29055 25.1181 8.90757C25.3707 10.5246 25.3202 12.3942 26.4319 13.607C27.0888 12.5458 28.0994 11.6868 29.2617 11.1815C29.9691 10.8783 30.8282 10.6256 31.0303 9.86765C31.2324 9.10968 30.626 8.40225 30.1207 7.79587C29.2111 6.63364 28.6553 5.16821 28.6047 3.65226C28.5542 2.94482 28.6553 2.23738 29.0595 1.631C29.6154 0.873021 30.5755 0.56985 31.5356 0.418255C32.1925 0.317192 32.9505 0.266648 33.4558 0.721433C33.759 0.974091 33.9106 1.37834 34.0622 1.73207C34.7696 3.55121 35.4771 5.37035 35.6287 7.29055C37.6499 7.18949 39.6712 7.13895 41.6925 7.03789C43.2589 6.98736 45.1286 6.98735 46.1392 8.20011C46.6951 8.85702 46.8972 9.66553 47.0488 10.474C47.2509 11.3331 47.4531 12.1416 47.6552 13.0006C48.2616 13.0006 48.7669 13.607 49.1206 14.1123C49.7775 14.9714 50.485 15.8809 51.1419 16.74C51.7988 17.5485 52.4052 18.4075 52.7084 19.4181C52.9105 20.1256 52.9105 20.9341 52.9105 21.6921C52.9105 22.6522 52.9105 23.5617 52.8599 24.5218C52.8094 25.9873 52.5568 27.4022 52.6073 28.8676C52.6578 30.0298 52.6578 31.3436 51.8493 32.2027C51.1419 32.9606 49.9796 33.1122 48.9185 33.0617C48.5648 33.0617 48.1605 32.9606 47.9584 32.6574C47.8068 32.4553 47.8068 32.2027 47.8068 31.95C47.7562 30.9394 47.7057 29.8782 47.9078 28.8676C48.0594 28.1096 48.3121 27.4022 48.4637 26.6947C48.6153 25.9873 48.6153 25.2798 48.6153 24.5724C48.6153 23.6628 48.6658 22.7532 48.6658 21.8437C48.6658 21.2878 48.6658 20.7825 48.5142 20.2772C48.3626 19.8224 48.0089 19.4182 47.6552 19.0139C46.6446 17.8517 45.6339 16.74 44.6233 15.6283C45.5329 19.7213 42.4504 23.966 43.5621 27.958C44.0674 29.7772 44.977 31.6973 44.9265 33.6175C44.7749 38.317 44.3201 43.067 42.602 47.4127C41.7935 49.3834 43.5116 51.4552 43.9159 53.527C44.118 54.4871 44.118 55.4472 44.0674 56.4073C44.0674 57.3674 44.0674 58.3275 43.8148 59.2876C43.1073 61.9658 43.5116 64.5429 43.6127 67.3222C43.6632 68.2317 43.7137 69.0908 43.5116 69.9498C43.3095 70.8088 42.8042 71.6679 42.0462 72.0721C41.3893 72.3753 40.6818 72.3753 39.9744 72.3248C39.8228 72.3248 39.6712 72.3248 39.5701 72.2237C39.4185 72.1227 39.368 71.9205 39.3175 71.7689C39.1659 70.9604 39.1153 70.1519 39.2669 69.3434C39.4185 68.636 39.6712 67.9285 39.8228 67.2211C40.3281 65.3514 40.3281 63.3807 40.3281 61.4605C40.3281 60.6015 40.3281 59.6919 40.0249 58.8328C39.5196 57.2664 38.0036 55.9525 38.2058 54.285C38.3574 52.9712 37.5489 52.0111 37.2962 50.7478C37.1446 50.0403 36.993 49.2824 36.9425 48.5749C36.8919 47.7159 36.993 46.8063 37.0435 45.9473C37.2457 43.7744 37.1951 41.551 36.993 39.3276C37.1446 41.1468 36.892 43.0164 36.235 44.7345C35.8813 45.6441 35.477 46.5031 35.1739 47.4127C34.7696 48.7771 34.8202 50.1919 34.8202 51.5563C34.8202 52.9206 35.0728 54.1839 35.0728 55.5483C35.0728 56.5589 34.9717 57.6201 34.3654 58.4791C34.618 60.5509 34.6685 62.6227 34.9212 64.6945C34.9717 65.3514 35.0728 66.0083 35.0223 66.6653C34.9717 67.3727 34.8201 68.0801 34.517 68.7876C34.2138 69.495 33.759 70.2025 33.1526 70.6067C32.4957 71.0615 31.6367 71.2131 30.9292 70.9099C30.7776 70.8089 30.5755 70.7078 30.4744 70.5562C30.2218 70.2025 30.3734 69.6972 30.525 69.2929C31.5356 66.5137 31.9904 63.4312 31.2324 60.5509C30.7271 58.6307 29.7165 56.761 29.9186 54.7903C30.1207 53.1733 29.5143 51.7079 29.5143 50.0909C29.5143 45.6441 28.5542 41.3994 28.9585 36.9526C29.1101 35.083 29.6659 33.2638 30.5755 31.5963C32.1925 28.6654 31.485 25.3809 31.384 22.0458C31.7377 22.6522 30.9798 23.4101 30.2723 23.4607C28.8069 23.5617 27.6952 22.2985 26.7856 21.1362C26.5835 20.833 26.3308 20.5804 26.1287 20.2772C26.0276 20.1761 25.9266 20.0245 25.8255 19.9235C25.0675 18.9128 24.4106 17.8011 23.8548 16.6389C23.4505 15.1735 22.4904 13.0512 22.0356 11.4342Z" fill="white"/>
</g>
</svg>
