<svg width="73" height="73" viewBox="0 0 73 73" fill="none" xmlns="http://www.w3.org/2000/svg">
<g id="T_emotes1">
<path id="Vector" d="M50.9184 20.4576C50.9701 19.0636 51.0217 17.6179 51.0217 16.2239C51.0217 15.9658 51.0217 15.656 50.9184 15.3979C50.8152 15.1397 50.6602 14.9332 50.5054 14.7783C49.9374 14.1071 49.2662 13.3843 48.4401 13.0745C48.4918 13.0745 48.2336 12.9196 48.2336 12.9196C48.0271 12.5065 47.9238 12.3 47.5108 12.0419C46.788 11.6288 45.807 11.5256 45.394 10.8027C45.0842 10.2864 45.2391 9.61524 45.394 9.0473C45.7038 7.91144 45.9619 6.67232 46.1168 5.53645C46.2717 4.34895 46.4266 3.05821 45.807 1.97398C45.1874 0.941372 43.9999 0.373426 42.7608 0.218535C41.6766 0.115275 40.5407 0.321783 39.7663 1.04461C39.4049 1.40602 39.1467 1.87069 38.9402 2.33536C38.1141 4.24569 37.7527 6.36254 37.9592 8.47938C36.9266 8.58264 35.894 8.63427 34.8614 8.73753C34.5 8.78916 34.1385 8.78916 33.7771 8.73753C33.4157 8.6859 33.0027 8.53103 32.6413 8.42776C31.5054 8.11798 30.2663 8.22123 29.2337 8.73753C26.4973 8.01471 24.1223 9.66687 21.5924 10.9576C20.1467 11.7321 18.0815 12.0935 17.6685 13.694C17.5652 14.2103 17.875 14.7266 18.3397 14.9848C18.7528 15.2429 26.9104 15.3978 27.375 15.1913C27.8397 14.9332 29.337 14.7783 29.75 14.4685C31.144 13.3326 25.3614 12.8679 27.1685 12.9196C29.2853 12.9712 30.731 14.1587 32.4348 12.9196C31.2473 16.6886 29.9565 19.4766 30.1114 23.4006C30.2147 26.2402 31.0408 29.2348 29.9565 31.8679C29.337 33.3652 28.0978 34.6043 27.375 36.05C26.962 36.8244 26.1359 37.5989 25.6712 38.3733C25.1033 39.3027 24.587 40.2836 24.1739 41.3162C23.5027 42.9684 23.2446 44.7238 23.3478 46.4793C22.625 46.8923 22.3668 47.8733 21.9022 48.5445C20.8696 50.145 18.9076 50.8162 17.7201 52.2619C17.0489 53.0879 16.6359 54.1722 16.6359 55.2564C15.3968 56.9086 14.519 58.9222 14.1576 60.9357C13.6929 63.5689 11.9376 66.1504 10.0789 68.0608C9.82072 68.3189 9.66578 68.7319 9.76904 69.0934C9.92393 69.6097 10.4919 69.6613 10.9566 69.6613C11.7826 69.6613 12.712 69.558 13.4348 69.1966C14.2093 68.7836 14.7772 68.0091 15.2935 67.2863C15.9131 66.4086 16.5843 65.5309 16.7908 64.4466C16.8941 63.9303 16.894 63.414 16.9973 62.8977C17.2038 61.6586 17.7718 60.5227 18.5979 59.645C20.1468 57.9928 22.7283 57.0635 23.3995 54.895C24.1739 54.2755 24.9483 53.5526 25.2581 52.5717C25.5679 51.5907 26.0842 50.713 26.807 50.0418C28.5625 48.4412 30.3695 46.6342 31.144 44.3624C31.557 43.0717 31.712 41.6777 32.5381 40.645C32.7446 41.1614 33.3641 41.626 33.8804 41.8325C34.3451 42.0391 34.913 42.0907 35.4293 42.1423C35.5842 42.3489 35.9973 42.5037 36.1522 42.6586C36.3587 42.8652 36.4619 43.2266 36.5136 43.5364C36.9782 45.963 37.856 48.2863 39.0435 50.4032C38.9918 51.3842 39.1984 52.4168 39.25 53.3977C39.25 54.0173 39.3016 54.6369 39.663 55.1532C38.9918 56.7537 39.0434 58.6124 39.663 60.2129C40.2309 61.7619 40.0244 63.4657 40.3858 65.1178C40.644 66.3569 40.4374 67.6477 40.6956 68.8868C40.8505 69.5064 41.057 70.126 41.3152 70.6939C41.625 71.3135 42.0896 71.9846 42.8125 72.1395C43.3804 72.2944 44 72.0879 44.5163 71.8814C44.8777 71.7265 45.2391 71.4683 45.2907 71.1069C45.3423 70.9004 45.2391 70.6939 45.1874 70.539C44.7744 69.4031 44.2065 68.3705 43.5869 67.3379C43.3288 66.8732 43.2771 66.3053 43.4836 65.789C44.0516 64.4983 43.8967 63.7238 44 62.5879C44.1548 60.4711 43.8967 58.4059 43.8967 56.289C43.8967 54.8434 44.4646 53.501 44.2065 52.0554C43.9483 50.3516 45.0325 48.3896 44.826 46.6858C44.7744 46.2728 44.6712 45.9114 44.6195 45.4983C44.5163 45.0336 44.413 44.5173 44.3097 44.0527C43.9483 42.4005 44.5679 40.9032 44 39.3027C43.432 37.7021 42.6576 36.2565 41.8315 34.7592C40.7473 32.7456 42.1929 30.4223 42.8125 28.2022C43.432 25.9821 44.6195 23.8652 46.5298 22.5228C46.3233 23.2457 46.3749 23.9685 46.7363 24.6397C47.0978 25.3109 47.6141 25.9304 48.1304 26.4984C48.2853 26.7049 48.0787 28.5636 48.1304 28.925C48.182 29.6994 48.5434 30.3706 48.5951 31.1451C48.8016 32.9005 48.0787 34.6559 47.3559 36.2049C47.201 36.463 47.0978 36.7728 46.9429 37.0309C46.4266 37.857 45.7554 38.6315 44.9809 39.1994C44.9809 39.5092 44.6195 39.5092 44.7228 39.819C44.7744 40.0255 45.0842 40.1288 45.2907 40.0771C45.4972 40.0255 45.7037 39.819 45.8586 39.6641C46.3749 39.1478 46.8396 38.6315 47.3559 38.1152C47.4592 39.0445 47.1494 39.8706 46.7363 40.6967C46.3749 41.3679 45.8586 41.9358 45.807 42.7103C45.807 42.8135 45.807 42.9684 45.8586 43.0201C46.0135 43.1749 46.2717 42.9684 46.3749 42.8135C47.5108 41.2646 48.5434 39.6124 49.4727 37.9086C49.8858 37.1342 50.2472 36.3598 50.6086 35.5337C51.0733 34.6043 51.4863 33.6233 51.8994 32.6424C52.2608 31.7646 52.519 30.8869 52.6222 29.9576C52.7771 28.7701 52.7255 27.8407 52.7771 26.6533C52.7771 25.9821 52.7771 25.2076 52.2608 24.7429C52.1059 24.2266 52.0543 24.0717 51.7961 23.6071C51.1249 22.4196 50.8668 21.7484 50.9184 20.4576Z" fill="white"/>
</g>
</svg>
