<svg width="73" height="72" viewBox="0 0 73 72" fill="none" xmlns="http://www.w3.org/2000/svg">
<g id="T_emotes10">
<path id="Vector" d="M21.2373 16.6486C21.2864 13.9941 21.6797 11.2905 22.4171 8.73426C22.5154 8.39016 22.8103 7.9969 23.1053 8.19353C23.2527 8.58679 23.4002 9.0292 23.5477 9.42246C23.8918 9.37331 24.2359 9.22584 24.4817 8.98005C24.8258 9.6191 25.0715 10.2581 25.219 10.9464C26.4971 10.7006 27.7261 10.3073 28.955 9.81573C29.9382 9.42247 31.0196 8.83258 31.3637 7.80027C31.5112 7.35785 31.5112 6.91543 31.5604 6.47301C31.6095 5.19492 31.6095 3.91683 31.6587 2.63873C31.7078 1.65558 32.6418 0.574118 33.5758 0.230016C34.6081 -0.163244 35.8862 -0.0649353 36.8202 0.62327C37.4593 1.06569 37.9017 1.65558 38.2458 2.34378C38.639 3.1303 38.934 3.96598 39.0323 4.85082C39.1798 6.12892 38.934 7.55448 38.4424 8.78342C39.6222 9.02921 40.802 9.07837 41.9326 9.52079C42.8666 9.37331 43.7023 9.86489 44.2922 10.6023C44.8821 11.3396 45.177 12.2736 45.3245 13.2076C45.7177 13.0601 45.816 13.5025 46.1601 13.6992C46.8975 14.1908 47.684 14.7315 48.4214 15.2231C49.6995 16.1079 50.9776 16.5503 52.1082 17.6318C52.354 17.8284 52.5506 18.0742 52.7964 18.2708C53.2388 18.6149 53.7796 18.8607 54.3695 18.959C55.156 19.0574 55.5001 18.7624 56.2866 18.7132C56.4832 18.7132 56.729 18.6641 56.9256 18.7624C57.4172 18.9099 57.6138 19.4998 57.663 19.9913C57.7121 20.6795 57.5155 21.3678 57.1223 21.8593C56.729 22.3509 55.9917 22.6458 55.3526 22.5475C55.0085 22.4984 54.7135 22.3017 54.4186 22.2034C53.6321 21.8593 52.7472 21.6627 51.8624 21.6627C50.5352 21.122 49.1587 20.4337 48.0773 19.4998C47.5365 19.0082 46.5042 18.8607 45.816 18.5166C45.3245 18.2708 44.6362 18.4675 44.1447 18.4675C44.1447 19.5489 43.3581 20.6304 42.6699 21.4661C42.4733 22.8425 41.8343 24.268 41.1461 25.4478C41.1952 27.5616 39.9663 29.8228 39.9663 31.9366C39.9663 33.2639 40.2612 34.6894 41.3427 35.5251C42.9649 36.8032 44.243 38.6712 45.5211 40.3426C45.816 40.7358 46.0127 41.1291 46.1601 41.5715C46.9467 43.4886 48.1756 45.2091 49.7978 46.5856C50.2402 46.9297 50.4369 47.4704 50.4369 48.0111C50.4369 48.7485 50.3385 49.4858 50.1419 50.2232C50.0436 50.7148 49.9944 51.3538 49.6012 51.6979C49.1096 52.1404 48.4214 52.337 48.0281 52.8286C48.1264 53.271 47.684 53.8609 47.4382 54.2541C47.1924 54.6474 46.8483 54.9423 46.6025 55.2864C46.2093 55.778 45.9144 56.3187 45.7669 56.9086C45.4228 58.0393 45.6194 59.3174 45.6194 60.5463C45.6686 60.4971 45.7177 60.6938 45.6686 60.7429C45.6194 60.7921 45.6194 60.8412 45.6194 60.8904C45.7177 61.4311 45.9635 61.9227 46.3076 62.316C46.7992 62.9059 47.4874 63.25 48.1756 63.6432C49.0113 64.1348 49.847 64.7738 50.5843 65.4129C50.5843 65.6095 50.5351 65.9045 50.5351 66.1011C50.5351 66.1503 50.5352 66.1994 50.486 66.2486C50.4368 66.2977 50.3877 66.2977 50.3385 66.2977C49.2079 66.4452 48.0281 66.5435 47.045 66.0028C45.2753 65.0688 43.1615 65.1671 41.1461 65.2162C40.6545 63.5941 40.4579 61.9719 40.9494 60.3497C41.2444 59.2682 41.3427 57.9901 41.9326 57.0561C41.4902 55.7289 41.6868 54.0575 42.1292 52.7794C42.4242 51.9929 42.8666 51.2555 43.309 50.5673C43.5056 50.2724 43.4073 49.5842 43.5056 49.2401C41.8834 47.8636 40.2121 46.5364 38.639 45.16C38.1475 44.7667 37.705 44.3243 37.3118 43.8819C36.7711 43.292 36.3286 42.5546 35.7879 42.0139C35.5913 42.2597 35.1489 42.0631 34.8539 41.9156C33.7724 46.0448 34.0674 50.7639 31.8553 54.4016C31.3637 55.2373 30.4789 55.4831 29.7415 56.1713C29.2991 56.5645 28.9058 57.0561 28.66 57.5968C28.5126 57.9409 28.1193 58.4325 27.7752 58.6783C26.2022 59.8581 24.9241 61.382 24.0884 63.1025C23.2036 64.9213 24.2359 67.0351 24.4325 69.0505C24.4817 69.6896 24.58 70.3778 24.285 70.9677C23.9901 71.5084 23.4002 71.8525 22.8103 71.9508C22.2204 72.0492 21.5814 72 20.9915 71.8034C20.844 71.8525 20.6965 71.6559 20.5982 71.5576C20.0083 71.0169 20.0575 70.0829 20.3033 69.2963C20.5982 68.559 21.0406 67.8708 21.2373 67.0842C21.3356 66.6418 21.3356 66.1502 21.1881 65.7078C21.0407 65.1671 20.6966 64.6264 20.6966 64.0365C20.6966 63.3974 20.844 62.6109 21.1389 62.021C21.6305 61.1362 22.073 60.2022 22.5645 59.3174C22.9086 58.6291 22.8595 57.8918 22.8595 57.1053C22.8595 56.712 22.8103 56.3187 22.8595 55.9255C22.9578 54.9423 23.4985 54.0575 24.1867 53.3693C24.7766 52.7794 25.6614 52.4353 26.153 51.7963C26.7921 51.0097 26.9887 49.535 27.087 48.601C27.6278 43.4395 25.6123 38.5237 26.2513 33.3622C26.3988 32.1824 26.448 31.4942 27.0379 30.5111C27.5786 29.6754 28.0702 28.7905 28.6109 27.9549C29.2008 26.9717 28.9058 25.7428 29.0042 24.6122C29.0533 24.0223 29.1025 23.4324 29.0042 22.8425C28.9058 22.2526 28.6109 21.6627 28.0702 21.3678C27.7752 21.1711 27.2345 20.9745 27.1362 20.6304C26.7921 21.5644 26.0055 22.2034 25.3173 22.8916C25.1207 23.0883 24.9241 23.2849 24.7274 23.4815C24.5308 23.6781 24.3834 23.8256 24.1376 24.0223C23.7443 24.3172 23.3019 24.5138 22.9086 24.7105C22.2204 25.0546 21.5322 25.3495 20.7948 25.1529C20.5982 25.1037 20.4016 25.0546 20.2541 24.9071C19.9592 24.6613 19.9592 24.2189 19.9592 23.8256C19.7134 23.8256 19.6642 23.4815 19.6151 23.2357C19.4676 22.0068 20.0083 20.827 20.5491 19.6964C21.0898 18.5658 21.2373 17.8776 21.2373 16.6486Z" fill="white"/>
</g>
</svg>
