<svg width="73" height="73" viewBox="0 0 73 73" fill="none" xmlns="http://www.w3.org/2000/svg">
<g id="T_emotes6">
<path id="Vector" d="M34.536 9.12324C34.2327 8.06138 34.0304 6.99953 33.8787 5.8871C33.6259 4.06676 33.7776 1.94301 35.2945 0.931711C35.9519 0.527192 36.7104 0.375509 37.4688 0.375509C38.7835 0.324944 40.2499 0.729476 40.9072 1.8419C41.3623 2.60038 41.3623 3.51054 41.3623 4.42071V8.21308C41.3623 8.71873 41.4129 9.1738 41.6151 9.62889C42.2725 11.2975 43.4355 10.9436 44.4974 11.0447C46.2166 11.1458 47.7335 12.4605 48.1886 14.0786C49.1999 14.2809 50.1606 14.382 51.1719 14.5842C52.0315 14.7359 52.8911 14.8877 53.599 15.3933C54.307 15.8484 54.7115 16.9608 54.5598 17.8204C54.3575 18.68 54.7115 19.843 54.8126 20.7026C54.9643 22.169 55.1665 23.7365 54.762 25.1523C54.3069 26.7198 53.6496 28.2873 52.9923 29.7537C52.2843 31.2201 52.0821 32.5348 50.6157 33.1922C50.2112 33.3944 49.5033 33.6472 49.0482 33.5461C48.9471 33.6472 48.4414 33.445 48.3909 33.3439C47.9863 32.8382 48.138 32.0797 48.3909 31.473C48.6437 30.8662 49.4022 30.31 49.3516 29.7032C49.3516 29.3998 48.3403 31.0684 48.4414 29.0458C49.1493 27.6806 50.1606 26.9727 50.9697 25.6074C51.4247 24.7984 51.7281 23.2814 51.5259 22.3713C51.3236 21.4105 50.3629 20.6015 50.5146 19.5902C50.5651 19.3879 50.6157 19.0845 50.4135 18.9834C50.3123 18.9328 50.2112 18.9329 50.1101 18.9329C48.9471 18.9834 47.7335 19.0845 46.5705 19.1351C46.8233 19.8936 46.2671 21.1071 45.6098 21.6128C45.6604 22.978 45.1041 24.4444 44.4468 25.658C45.0536 27.984 44.2445 30.5122 42.9298 32.4843C43.84 33.4956 44.9019 34.6586 46.0649 35.3665C47.0762 35.9732 47.9358 36.7823 48.6942 37.6924C49.655 38.8049 50.9697 39.8667 51.4248 41.3331C51.7281 42.2433 52.2338 42.749 52.9923 43.3052C53.7507 43.9119 54.5598 44.4681 54.9643 45.2772C56.3296 45.9851 56.9869 47.7549 56.2284 49.0695C55.6216 50.0808 55.1666 51.2944 54.3069 52.0529C53.953 53.1148 52.8406 53.5193 52.0315 54.2777C51.3236 54.9351 50.9191 55.7947 50.464 56.6543C49.655 58.2218 48.8965 59.7893 48.0875 61.4074C47.6829 62.1659 47.329 62.9749 47.2784 63.8345C47.2279 65.0986 48.0369 66.3122 49.0482 67.0201C50.0595 67.7786 51.3236 68.1325 52.5877 68.4359C53.0934 68.5371 53.6496 68.7393 53.7507 69.245C53.8519 69.6495 53.599 70.1046 53.1945 70.2563C52.5877 70.5091 51.981 70.3574 51.3742 70.1551C48.0369 70.6102 44.2445 70.054 41.1601 68.6888C40.8567 67.4246 40.6038 66.2111 41.4129 65.1998C41.3118 65.2504 41.4129 65.4526 41.3118 65.3515C41.7668 64.1379 42.3736 62.9749 43.031 61.9131C43.7389 60.8006 44.4973 58.8286 44.6996 57.5645C44.9019 56.1992 45.1041 54.834 45.5592 53.5698C46.0143 52.3057 46.7728 51.0921 47.8852 50.3337C47.7335 49.8786 48.3403 49.7775 48.4414 49.3224C48.5931 48.8167 48.0875 48.4122 47.6324 48.1594C46.9245 47.6537 46.3177 46.9964 45.6603 46.4402C44.2445 45.2772 42.5759 44.5187 40.9072 43.8614C40.351 43.6591 39.7442 43.4063 39.4914 42.9006C39.5926 45.0749 39.3397 47.5526 38.8846 49.6763C38.4296 51.6989 38.8846 53.7721 38.379 55.7441C38.3284 56.0475 38.2273 56.3509 38.0756 56.6543C37.7216 57.3116 37.1149 57.6656 36.5081 58.0196C35.1934 58.778 33.8281 59.3848 32.4123 59.7388C29.9852 60.3961 27.8615 62.0647 26.1423 63.8851C24.3219 65.8065 26.4962 69.8517 27.2547 72.0766C26.4457 71.9755 25.5861 72.2283 24.777 72.3294C23.968 72.4306 23.0072 72.38 22.4005 71.8238C21.7937 71.2676 21.642 70.3069 21.4903 69.5989C21.4397 69.245 21.3892 68.891 21.3892 68.5371C21.4903 64.7952 23.4118 61.8625 25.4344 59.0308C26.0411 58.1712 26.6479 57.3117 27.3053 56.452C27.8615 55.6936 28.4177 54.9857 29.1762 54.4295C29.8841 53.9238 30.8448 53.6204 31.7044 53.8732C32.4629 53.3676 32.5135 51.9518 32.3112 51.0921C32.1089 50.2325 31.6539 49.4235 31.3505 48.5639C31.0471 47.7549 30.8954 46.9458 30.7437 46.1368C30.238 43.2546 30.238 40.2713 30.592 37.3891C30.7943 35.771 30.8448 34.0518 31.5527 32.5854C32.3112 30.9167 31.6539 29.2481 31.7044 27.4278C31.7044 27.0232 31.7044 26.5681 31.6033 26.2142C31.401 25.7085 30.9965 25.304 30.592 24.8995C28.7717 22.978 27.7098 20.3992 27.6592 17.7699C26.3445 19.7419 23.8669 20.8543 21.4903 20.5509C21.5409 23.2814 21.7937 26.1636 22.6533 28.7424C22.805 29.1975 23.0073 29.602 23.3106 30.0066C25.0298 32.1303 25.2321 35.1136 25.2827 37.8441C24.9793 38.0464 24.6253 37.7936 24.1197 37.6924C24.0691 37.8947 24.0185 38.7037 23.968 38.906C23.5129 39.1083 23.0072 38.7543 22.7039 38.4004C22.0971 37.7936 21.4397 37.1362 20.833 36.5294C20.5801 36.2766 20.3273 36.0238 20.1756 35.7204C19.6194 34.8103 19.67 33.6978 19.7711 32.6865C19.8722 31.2707 19.6194 30.4111 18.9621 29.1975C18.1024 27.7311 17.6979 26.1131 16.6361 24.849C16.6361 24.6467 16.2821 24.3433 16.2821 24.141C16.1304 22.9275 15.9787 21.7645 16.181 20.5509C16.4338 19.0846 17.7485 17.4665 19.1643 16.9103C20.5296 16.354 21.8948 16.1518 23.2601 15.3933C23.5129 15.2416 23.7152 15.0393 23.8669 14.7865C24.9793 12.8651 27.0019 11.4998 29.1762 11.1964C29.6313 11.1459 30.0358 11.0953 30.4909 11.0953C31.6538 10.9942 32.8169 10.7919 33.9798 10.4379C34.3844 10.084 34.6877 9.57832 34.536 9.12324Z" fill="white"/>
</g>
</svg>
