<svg width="72" height="73" viewBox="0 0 72 73" fill="none" xmlns="http://www.w3.org/2000/svg">
<g id="T_emotes13">
<path id="Vector" d="M54.7414 24.7778C54.2321 23.6668 54.371 22.2317 54.5099 20.9818C54.6488 19.6855 54.7877 18.343 54.4636 17.0468C54.047 15.4728 52.797 14.5007 51.5934 13.4359C51.0379 12.973 50.4824 12.4638 49.9268 12.0008C49.2787 11.4453 48.5843 10.7972 48.4454 9.91763C48.3529 9.4084 48.538 8.89915 48.6306 8.38993C49.0473 6.53819 49.0473 4.59388 48.6306 2.74215C48.538 2.27921 48.3529 1.76997 48.0288 1.39962C47.5196 0.890396 46.6863 0.890396 45.9456 0.936689C44.6494 0.982983 43.2143 1.12186 42.381 2.09403C41.6403 2.9736 41.594 4.22351 41.594 5.38085C41.594 6.53819 41.7792 7.64924 41.8255 8.80658C40.6681 9.26951 39.3719 9.08434 38.122 9.03805C36.8721 8.99175 35.4833 9.13064 34.65 10.0565C33.9093 10.8435 34.3722 11.8619 34.5574 12.973C34.6963 13.8989 33.7241 14.5007 32.9834 15.1488C32.0576 15.9358 31.502 17.0468 30.9928 18.1116C29.1411 21.8613 27.5208 25.75 26.2246 29.7312C25.7616 29.7775 26.132 29.5923 25.8542 29.9164C25.7154 30.0553 25.6228 30.2868 25.4376 30.4256C25.2987 30.5645 25.1598 30.6571 25.0209 30.7497C24.234 31.2589 23.5396 32.0922 22.7063 32.4625C22.197 32.694 21.6878 32.9255 21.1786 33.1569C19.7898 33.7587 18.401 34.4069 17.0585 35.1013C16.9196 35.1938 16.8733 35.5179 16.8733 35.7031C16.2715 36.1197 15.8086 36.7678 15.716 37.5085C15.6234 38.0178 15.716 38.5733 15.8086 39.0825C15.9474 39.8232 16.2715 40.5176 16.5955 41.212C17.1974 42.4156 18.0769 43.4804 18.8176 44.6377C20.3916 47.0913 22.7526 49.6374 22.1508 52.4613C21.9656 53.3872 21.1786 54.0816 20.4842 54.7297C20.2064 54.9612 19.9287 55.1926 19.6509 55.4241C18.8176 56.1185 18.401 56.4888 17.4288 56.9981C17.0585 57.1832 16.6881 57.461 16.4567 57.8314C16.2252 58.2017 16.1789 58.7109 16.3641 59.0813C16.5492 59.4979 17.3825 59.7294 17.7992 59.5905C19.0491 59.6368 20.4379 59.4053 21.2712 58.3869C22.0119 58.3869 22.7526 57.9702 23.4007 57.5999C24.6969 56.8592 25.9931 56.1185 27.243 55.3778C27.3819 55.2852 27.5208 55.2389 27.5671 55.1C27.6597 54.9612 27.6597 54.7297 27.6134 54.5445C27.3819 52.8779 26.3172 51.4892 25.0672 50.3318C24.8358 50.1004 24.6043 49.9152 24.4654 49.6374C24.3265 49.3597 24.3265 48.9893 24.3265 48.6652C24.3265 47.7394 24.3265 46.9524 24.2803 46.0265C24.234 44.9155 24.3265 43.8044 24.234 42.6934C24.1414 41.5824 24.0025 40.3787 23.2155 39.638C25.2987 39.7769 27.4282 39.7306 29.5114 39.5454C30.1132 39.4992 30.9928 39.4528 31.3169 38.9436C32.9834 39.3603 34.7426 39.314 36.4554 39.4529C36.0851 40.3324 35.9925 41.3046 35.8999 42.2767C35.761 44.9155 36.1777 47.6005 36.7795 50.1929C37.1961 52.0447 38.0757 53.7575 38.4923 55.6093C38.7701 56.8592 39.5571 57.9239 40.483 58.8035C41.4088 59.7294 42.381 60.5164 43.168 61.5811C43.9087 62.5996 44.4179 63.9421 44.1402 65.192C44.0013 65.6549 43.9087 66.0716 43.8161 66.5345C43.6309 67.4604 43.2143 68.3863 42.6125 69.127C41.9644 69.9139 41.1311 70.6083 40.807 71.5805C40.7607 71.7194 40.9459 71.9972 40.9922 72.136C41.1311 72.5064 41.5477 72.6453 41.9644 72.7378C42.8902 72.9693 44.1864 72.9693 45.1123 72.7842C45.2975 72.8304 45.529 72.6916 45.7141 72.599C46.7789 71.812 47.751 70.7935 47.9362 69.451C48.0751 68.5251 47.9362 67.7382 47.6585 66.8123C47.9825 66.0253 48.0751 65.192 47.8436 64.3587C47.0103 63.618 46.8715 62.3218 46.8252 61.2108C46.7789 60.5627 46.7326 59.7757 46.7326 59.0813C46.7326 57.9239 46.7326 56.674 46.1308 55.6556C45.8067 55.1 45.3438 54.6834 44.8346 54.2668C44.5105 53.9427 44.1402 53.6649 43.7235 53.7575C43.2143 52.8316 43.2606 51.6743 43.0754 50.6559C42.8902 49.6374 43.0291 48.5727 43.1217 47.5079C43.3995 44.7766 43.8624 41.8601 43.8624 39.1288C44.1402 39.0825 44.4642 39.1288 44.742 39.0362C46.1771 38.3418 47.7973 37.3233 48.2603 35.7957C48.7695 35.5642 49.2324 35.379 49.6954 35.1476C50.3435 34.8698 50.9916 34.592 51.5008 34.1291C51.7323 33.9439 51.9175 33.7125 52.1489 33.5273C52.4267 33.3421 52.7044 33.1569 52.9822 33.0181C53.7229 32.5551 54.2321 31.583 54.8339 30.9348C55.6672 30.0553 55.945 28.8517 55.945 27.648C55.8524 26.537 55.158 25.7037 54.7414 24.7778ZM33.076 27.0925C32.9371 27.8332 32.7057 28.5739 32.2427 29.222C31.7798 29.8238 31.0854 30.2867 30.2984 30.2404C29.9744 30.2404 29.604 30.1016 29.4651 29.7775C29.0022 28.7591 30.4836 27.1388 30.9465 26.3518C31.7798 24.963 32.6131 23.6205 33.4464 22.2317C33.5852 23.8982 33.4464 25.5185 33.076 27.0925ZM51.3156 28.1572C50.2509 29.3146 49.2324 30.5182 48.1677 31.6756C47.4733 32.4625 46.7789 33.2032 45.853 33.7588C42.381 35.7494 42.8439 31.8607 43.7698 30.009C44.9271 27.6017 47.1492 25.7037 49.4639 24.1297C49.1861 25.4259 50.2972 26.5833 51.2231 27.6017C51.3156 27.6943 51.4082 27.8332 51.4082 27.9721C51.4082 28.0647 51.3619 28.1109 51.3156 28.1572Z" fill="white"/>
</g>
</svg>
