<svg width="73" height="73" viewBox="0 0 73 73" fill="none" xmlns="http://www.w3.org/2000/svg">
<g id="T_emotes11">
<path id="Vector" d="M58.2408 70.3499C57.6685 69.6736 56.9402 69.1534 56.3159 68.5291C55.6917 67.9048 55.3795 66.8644 55.3795 65.98C55.3275 64.2112 55.1714 62.4424 54.8593 60.7256C54.5992 59.321 54.3911 57.8124 54.4951 56.3557C54.6512 54.5349 54.287 52.558 53.5587 50.8933C53.9749 48.8124 52.4662 46.9395 51.3737 45.1187C50.7495 44.0262 50.2292 42.8817 49.709 41.7372C49.4489 41.1649 49.1888 40.5407 49.0847 39.9164C48.9807 39.3441 49.0327 38.7719 49.0847 38.2516C49.1888 37.2112 49.3969 36.0147 49.605 35.0262C50.8535 34.0898 51.6859 32.7372 52.4142 31.3846C52.6743 30.9684 52.8824 30.5522 53.0385 30.084C53.2466 29.4077 52.9344 28.7314 53.0385 28.0031C53.2466 26.5985 53.3506 25.0378 53.0385 23.6332C52.2581 23.0089 51.6859 22.1765 51.1136 21.3441C50.3853 20.2516 49.605 19.0031 48.9287 17.9626C48.8766 16.7661 48.6165 15.5696 48.2523 14.4771C48.0963 13.9569 47.8362 13.4366 47.472 13.0725C47.0558 12.6043 46.4315 12.2921 45.8073 12.084C45.287 11.8759 44.8188 11.8239 44.2466 11.6158C43.9344 11.1476 43.4662 10.7314 42.946 10.5233C42.4778 10.3152 42.0096 10.2632 41.5414 10.1071C40.761 9.795 40.2408 9.22275 40.0327 8.39038C39.6685 7.0898 40.1888 5.68517 40.3448 4.3846C40.4489 3.55223 40.0327 2.82389 39.5645 2.09557C39.2003 1.57533 38.8362 1.00309 38.2119 0.742977C37.8477 0.586908 37.3795 0.586914 36.9633 0.586914C35.6628 0.586914 34.1541 0.638931 33.2177 1.52332C32.0732 2.56379 32.0211 4.3846 32.1252 5.94529C32.1772 6.88171 32.0732 8.02621 31.4489 8.80656C31.0847 8.85858 30.7726 9.37881 30.4084 9.48286C29.6801 9.74297 28.9518 10.0031 28.2234 10.2632C27.9113 10.3672 27.5992 10.4713 27.287 10.6274C26.2466 11.1476 25.4142 11.98 24.5818 12.8123C24.3737 13.0204 24.4258 13.0725 24.3737 13.3326C24.2697 13.9569 24.1136 14.5291 24.1656 15.1534C24.2177 16.2979 25.3622 17.3904 24.7899 18.4308C24.0096 19.8355 23.5414 21.4482 22.3969 22.5407C21.9287 22.9569 21.7726 23.6332 21.7206 24.2574C21.5125 25.61 21.9287 27.0147 21.9807 28.4193C22.0327 30.5002 23.3333 32.269 24.3737 34.0378C24.5818 34.3499 24.894 34.7141 24.894 35.0782C24.2697 36.0667 23.6454 37.0551 23.0211 37.9915C22.5009 38.8239 21.9807 39.6563 21.8766 40.6447C21.7726 41.6852 21.5125 42.2054 20.9402 43.0378C20.42 43.8181 19.7437 44.4944 19.2234 45.2748C18.7032 46.0551 18.5471 46.9395 18.4431 47.8759C18.3391 49.4366 17.8708 51.2574 18.8073 52.506C19.7957 53.8066 19.5876 55.4713 19.9518 57.084C20.2639 58.3846 19.8477 59.6852 20.2639 60.9337C20.472 61.6621 20.3159 62.4424 20.0038 63.1187C19.6396 63.795 19.1194 64.3152 18.5471 64.8355C18.4431 64.9395 18.4431 64.9915 18.287 64.9395C17.1945 65.5118 16.2061 66.2401 15.3217 67.0725C15.0616 67.3326 15.1656 67.6447 15.0616 68.0089C14.9055 68.5291 15.2697 69.1014 15.7899 69.3094C16.3102 69.5175 17.0905 69.2574 17.6107 69.2054C18.3911 68.373 19.5876 67.9569 20.6801 67.6967C21.8246 67.4366 23.0211 66.9684 24.0616 66.5002C24.7379 66.1881 25.1541 65.5118 25.2581 64.8355C25.4142 64.1592 25.3102 63.3788 25.2581 62.7025C25.1541 61.9222 24.998 61.0378 25.1021 60.2574C25.2581 58.5927 24.998 56.8239 24.5298 55.2112C25.05 54.4829 25.1541 53.5464 25.1021 52.662C25.1021 51.7777 24.946 50.8933 25.05 50.0089C25.1021 49.3846 25.1541 48.3441 25.6223 47.98C27.287 46.6274 29.3159 45.743 30.9807 44.3904C32.0211 43.558 32.8535 42.5696 33.894 41.7372C34.8824 40.9048 36.0789 40.1765 37.3795 40.0204C38.2639 39.9164 39.3564 40.2285 39.6685 41.0609C39.9807 41.8412 40.1367 42.5176 40.2408 43.3499C40.4489 44.5465 41.3333 45.2748 42.1136 46.2112C43.1021 47.4598 44.2466 48.6042 45.5471 49.5407C46.5876 50.321 48.5645 51.2054 48.3044 52.506C48.0963 53.3904 47.9922 54.3268 48.0963 55.2112C48.2524 56.3557 48.7726 57.3962 49.2928 58.3846C49.3969 58.5407 49.605 58.5407 49.709 58.6968C50.2292 59.6332 51.1656 60.4135 51.3217 61.506C51.4258 62.3904 51.4778 63.0147 51.3737 63.8991C51.1136 65.5638 51.1136 67.1765 51.3217 68.8413C52.3102 69.7257 53.2986 70.662 54.235 71.5464C54.6512 71.9106 55.1194 72.3268 55.6396 72.4829C56.1078 72.6389 56.6281 72.5869 57.0963 72.5349C57.6165 72.4829 58.1888 72.3788 58.4489 71.9626C58.8651 71.4424 58.605 70.7661 58.2408 70.3499ZM29.368 33.6736C28.9518 34.2979 28.1194 34.7141 27.4431 34.558C27.0789 33.7256 27.183 32.7372 27.131 31.8008C27.0269 29.8239 26.1425 28.0031 26.0905 26.0262C26.0905 25.1418 26.5067 24.3095 26.9749 23.5811C27.0789 23.373 27.235 23.165 27.4431 23.0609C27.6512 22.9569 27.9633 22.9568 28.0674 23.1649C28.1714 23.321 28.1714 23.5291 28.1714 23.7372C28.1714 24.8817 28.7437 25.9742 29.1078 27.0667C29.6281 28.5233 29.8882 30.032 29.7841 31.5407C29.8882 32.269 29.7841 33.0493 29.368 33.6736ZM46.5876 31.4886C46.5356 32.0609 46.5876 32.6332 46.5876 33.2054C46.5876 33.7777 46.4315 34.402 46.0154 34.7661C45.4951 35.2343 44.6628 35.1823 44.0385 34.8181C43.4142 34.506 43.1541 34.0378 42.7379 33.4655C42.5818 31.8528 42.4778 30.2401 42.4778 28.6794C42.4778 28.1592 42.4778 27.6909 42.5298 27.1707C42.7379 25.454 43.6743 23.9453 44.5587 22.4886C44.8708 23.269 45.3911 23.9973 46.0154 24.5176C47.0038 25.2979 47.8882 26.2863 47.8882 27.5349C47.9402 28.8875 46.7957 30.084 46.5876 31.4886Z" fill="white"/>
</g>
</svg>
