<svg width="73" height="73" viewBox="0 0 73 73" fill="none" xmlns="http://www.w3.org/2000/svg">
<g id="T_emotes8">
<path id="Vector" d="M11.6327 27.629C12.1623 26.7021 13.3541 26.4814 14.2368 25.8634C14.8547 25.4221 15.2961 24.7159 15.8699 24.1862C16.6203 23.5241 17.5913 23.1269 18.3858 22.509C19.2685 21.8469 19.9747 20.9641 20.8134 20.2579C21.652 19.5517 22.7554 19.0221 23.8147 19.2428C24.3003 18.8897 24.9182 18.4483 25.3596 18.051C25.6685 17.7862 25.9334 17.4772 26.2423 17.1683C26.5072 16.8593 26.8161 16.5503 27.081 16.2855C27.6547 15.6676 28.2727 15.0497 28.8023 14.4317C28.5816 12.8428 29.1554 11.4303 30.3913 10.4152C31.6272 9.4 33.3044 9.0469 34.8933 9.22345C36.3058 9.40001 37.4975 8.60552 38.9099 8.73794C39.263 8.78207 39.1747 8.29656 39.1747 7.94345C39.1306 6.92828 39.0864 5.91311 39.0864 4.89794C39.0864 4.45656 39.0423 4.01518 39.1747 3.5738C39.5278 2.24967 40.9844 1.54346 42.3085 1.14622C43.103 0.925529 43.9858 0.748976 44.7802 1.0138C45.0451 1.10208 45.3099 1.23449 45.5747 1.41105C46.3251 1.85242 47.1196 2.33794 47.5168 3.13242C47.914 3.92691 47.8699 4.89794 47.7816 5.7807C47.6492 7.4138 47.5168 9.13518 46.943 10.68C47.6934 11.5628 48.4878 12.5779 49.503 13.1517C50.6064 13.8138 51.9306 14.1228 52.8133 15.0055C53.4313 15.6676 53.7844 16.5503 53.9168 17.4331C54.0492 18.3159 53.9609 19.2428 53.9168 20.1255C53.7844 21.7586 55.5058 22.8179 56.1237 24.3628C56.874 26.1724 57.8009 27.8496 58.1099 29.7917C58.4189 31.7779 59.5223 33.72 59.8313 35.7503C59.9195 36.4124 59.9637 37.0745 59.7871 37.7365C59.4782 38.84 58.2864 39.5462 57.2713 39.6345C56.8299 39.6786 55.8588 39.811 55.5057 39.5021C55.0644 39.1489 55.1527 38.0455 55.2409 37.5158C55.4175 36.1034 56.4327 35.1765 56.4327 33.6758C56.4327 32.44 56.0354 31.2483 55.5499 30.1448C54.1816 27.0552 51.7982 24.2745 49.1058 22.2883C49.0175 22.2441 48.9292 22.1559 48.8409 22.1117C48.4437 23.5683 47.5609 24.8483 46.3692 25.8193C45.972 26.1283 45.6189 26.8786 45.354 27.2759C45.1333 27.5848 44.9568 27.9379 44.7361 28.2469C44.1182 29.2179 43.5444 30.1448 42.8382 31.0717C42.3968 31.6896 41.9996 32.5724 41.5582 33.1903C41.2051 33.6758 40.8078 34.2055 40.9402 34.7793C41.1609 35.7503 41.3816 36.589 41.9996 37.2952C42.9265 38.3545 43.8534 39.4138 44.2947 40.7379C44.9127 42.5917 44.3389 44.7986 44.2947 46.6965C44.2506 47.491 45.2216 48.1531 45.663 48.8152C46.2809 49.7862 46.2809 51.0662 46.1485 52.2138C46.0161 53.3614 45.7071 54.5089 45.7071 55.6565C45.7513 58.3931 45.3099 60.9089 45.1333 63.6455C45.0451 65.2344 44.9568 66.9117 45.7071 68.3241C46.0602 69.0303 46.5899 69.6041 46.8989 70.3544C47.2078 71.1048 47.1637 72.0317 46.5458 72.5172C46.5016 72.4731 46.3251 72.6496 46.3251 72.6937C46.3251 72.7379 46.2368 72.782 46.1927 72.782C44.8244 73.1351 43.2795 72.5172 42.4851 71.3255C42.5292 70.3986 42.0878 69.6482 41.5582 68.8979C41.514 68.1034 41.3375 67.3531 41.2933 66.5144C41.2051 64.8372 41.7347 63.2924 42.0878 61.6151C42.2644 60.7765 41.8672 60.2469 41.8672 59.4082C41.8672 58.9227 41.8671 58.4372 41.6906 57.9517C41.514 57.5103 41.2051 57.1572 40.9402 56.8041C40.4106 55.9213 40.2782 54.8179 40.5871 53.8469C40.7637 53.3172 40.9402 52.6993 40.852 52.1255C40.8078 51.9048 40.8961 51.6841 40.8961 51.4634C40.8961 51.022 40.6313 50.6248 40.3223 50.3158C38.9099 48.6386 37.2327 47.0938 36.4823 45.0193C35.8644 43.342 35.5113 41.7089 35.8644 39.9434C35.9085 39.7669 35.6878 39.5903 35.5113 39.5021C35.3347 39.3696 35.114 39.4138 34.9816 39.5021C35.2023 40.5614 34.9816 41.6207 34.9816 42.68C34.9375 44.0924 34.8492 45.8579 34.5402 47.2262C34.4078 47.9324 34.4961 48.6386 34.4078 49.3448C34.7168 49.3889 34.8934 49.6979 35.0258 50.0069C35.5113 50.9779 35.6878 52.1255 35.4672 53.2289C35.2465 54.3765 35.6437 55.8772 35.5996 57.0689C35.5554 57.5103 35.5113 57.9517 35.2465 58.3048C34.6285 59.1434 34.7609 60.5117 34.8051 61.571C34.8492 63.2041 34.8051 64.9696 34.8933 66.6027C34.9816 68.2358 34.9816 69.9131 34.3196 71.4138C34.2313 71.6344 34.143 71.811 33.9223 71.9434C33.7458 72.0758 33.4809 72.12 33.2603 72.12C32.4216 72.1641 31.583 71.9875 30.8327 71.6786C30.7003 71.6344 30.5678 71.5462 30.4354 71.4579C30.1265 71.0606 30.5237 70.531 30.5678 70.0455C31.1416 69.251 31.4065 68.5006 31.8478 67.6179C32.554 66.1172 31.8037 64.5282 31.892 62.8951C31.892 62.4538 31.4947 62.2772 31.3623 61.88C30.9209 60.5558 30.4354 59.2317 29.994 57.9076C29.5085 56.5393 29.8175 54.8179 30.0382 53.4055C30.2147 52.3903 30.2589 51.2869 30.2589 50.2717C30.2147 48.9917 29.7734 48.0207 29.0672 46.9614C28.0961 45.5489 27.2575 44.0924 27.1251 42.371C26.9485 39.9876 27.2134 37.8248 27.3458 35.4414C27.434 34.1614 27.3458 32.8814 28.2727 32.0427C28.3609 30.9834 28.6258 30.0124 29.1113 29.0855C29.4203 28.4676 29.8175 27.8938 30.2147 27.3641C30.6561 26.7462 30.7444 25.9517 30.8768 25.2014C31.1416 24.0096 31.1858 22.7296 31.1858 21.4938C31.1858 20.6552 31.2299 19.8165 31.2299 18.9779C31.0975 19.64 30.303 20.0814 29.7734 20.4786C28.5816 21.4055 27.2134 22.1117 25.8009 22.5531C24.6534 22.9062 23.5941 23.9214 22.4465 24.2745C22.0934 24.4069 21.6961 24.451 21.343 24.5393C19.6658 24.8924 18.0768 25.731 16.7968 26.9228C16.3113 27.3641 16.3554 27.9821 16.2672 28.6441C16.0465 29.88 15.2961 31.0276 14.2368 31.7338C13.7954 31.9986 13.0451 31.8221 12.692 31.469C12.5154 31.3365 12.383 31.1159 12.2506 30.9393C11.5003 30.0565 11.7651 28.7765 11.6327 27.629Z" fill="white"/>
</g>
</svg>
