<svg width="73" height="73" viewBox="0 0 73 73" fill="none" xmlns="http://www.w3.org/2000/svg">
<g id="T_emotes7">
<path id="Vector" d="M50.4807 21.9863C50.891 21.0746 51.5292 20.4821 52.2129 19.7527C53.5804 18.2484 53.626 15.6957 52.3041 14.1459C51.7571 13.5077 50.9821 13.0063 50.2528 12.5504C49.2955 11.9578 48.3839 11.4108 47.4266 10.8182C47.1531 10.2257 47.0163 9.45072 46.9252 8.76696C46.8796 8.35671 46.834 7.94645 46.834 7.5362C46.8796 6.07751 47.8824 4.16298 47.0619 2.93221C45.8767 1.20002 43.5064 0.425091 41.5463 1.15443C39.7685 1.79261 38.4921 3.5248 38.2186 5.39375C37.9907 7.26269 38.6745 9.17722 39.9964 10.5903C38.8568 10.4536 37.5805 10.3624 36.5776 10.955C36.2129 11.1829 35.8483 11.502 35.5748 11.8211C34.2984 13.143 33.2044 14.6473 32.703 16.4251C31.5634 16.1516 30.9708 15.2399 30.1047 14.4194C28.4636 12.8239 26.1389 11.7299 23.9052 12.2769C23.7685 12.3225 23.5862 12.3681 23.495 12.5049C23.2671 12.7784 23.495 13.1886 23.7685 13.4621C25.2272 15.0576 27.2329 16.0148 28.9651 17.3368C30.0135 18.1573 31.0164 19.2057 31.6089 20.3909C34.4807 23.2627 37.7172 25.861 41.1816 28.0034C41.7742 28.3681 42.3212 28.6872 42.9594 28.9151C43.5064 28.8695 44.1445 28.7783 44.4636 28.3681C44.6004 28.1858 44.6916 27.9578 44.8283 27.7755C45.0562 27.502 45.3753 27.3197 45.6944 27.1373C47.7913 25.9977 49.4779 24.1744 50.4807 21.9863Z" fill="white"/>
<path id="Vector_2" d="M20.3041 52.2537C20.4409 52.9831 20.7599 53.6668 21.1246 54.305C22.3098 56.493 23.4494 58.6811 24.6346 60.8691C25.3639 62.191 26.0933 63.6497 26.0477 65.154C26.0021 66.4303 25.4551 67.6155 24.6802 68.5728C23.9052 69.5756 22.948 70.3962 21.9907 71.2167C21.626 71.5358 21.8084 71.9916 22.1731 72.3107C22.5377 72.6298 22.9936 72.7665 23.4494 72.8577C23.7685 72.9489 24.0876 72.9944 24.4067 72.9944C24.6802 72.9944 24.9537 72.9033 25.2272 72.7665C27.0961 72.0828 28.8283 70.9887 30.3326 69.6668C30.3326 67.7523 30.1047 66.0657 29.6032 64.1967C29.193 62.6013 28.8283 61.0514 28.4181 59.456C27.9622 57.6782 28.5548 56.0372 28.0534 54.305C27.8255 53.3933 27.324 52.6184 26.8226 51.8435C26.0477 50.5671 27.8255 49.3363 28.646 48.1056C30.1958 45.872 31.6089 43.5016 32.8397 41.0856C33.3867 40.9945 33.9793 41.0856 34.5719 41.1312C34.0249 42.4076 34.3896 43.8663 34.7542 45.1882C35.6203 48.2879 36.532 51.4332 37.9907 54.305C37.626 54.6241 37.6716 55.2623 37.6716 55.7637C37.7172 57.3591 38.9024 58.7722 40.3611 59.456C40.2699 60.2765 41.2272 60.7779 41.8198 61.4161C43.1873 62.966 43.4608 65.154 43.4152 67.2053C43.4152 68.117 43.3696 69.0286 43.6431 69.8947C44.0078 70.9887 44.8739 71.8548 45.9679 72.1739C46.8796 72.4474 47.928 72.4474 48.8853 72.3563C49.022 72.3563 49.1588 72.3107 49.25 72.2195C49.3411 72.1283 49.3867 71.9916 49.3867 71.9004C49.4323 71.399 49.3867 70.8976 49.1588 70.4417C48.9764 70.0315 48.6574 69.7124 48.4294 69.3477C48.0648 68.8463 47.7457 68.2537 47.5633 67.6611C47.381 67.0685 47.0619 66.7494 46.9708 66.1113C46.8796 65.3819 47.2443 64.8349 47.1531 64.1056C47.0619 63.3762 46.7884 62.6469 46.1502 62.2822C46.0591 60.6412 45.9679 59.0457 45.5576 57.4503C45.193 56.1739 44.6916 55.5358 43.871 54.5785C43.5064 54.1682 43.3696 53.6212 43.1873 53.0742C43.0049 52.4361 42.8226 51.7979 42.8226 51.1141C42.8226 49.6554 43.6431 48.1967 43.3696 46.7836C42.6859 43.1825 43.0505 39.3079 41.7742 35.8435C40.9537 33.6554 42.3668 31.6042 42.777 29.325C42.0933 29.097 41.4551 28.7324 40.9081 28.3677C37.6716 26.3164 34.6175 23.946 31.8369 21.2566C31.928 21.7124 31.9736 22.1227 31.928 22.6241C31.8824 23.08 31.7457 23.5814 31.6545 24.0372C31.1531 25.9062 30.6517 27.7295 30.1503 29.5985C29.9223 30.4646 29.4665 31.2851 28.8283 31.9232C28.1901 32.5614 27.4608 33.0173 26.777 33.6099C24.4067 35.7523 23.4038 38.9888 22.5377 42.0429C21.854 44.4133 21.626 46.8748 20.7599 49.1996C20.4864 50.2024 20.1218 51.2509 20.3041 52.2537Z" fill="white"/>
</g>
</svg>
