<svg width="73" height="73" viewBox="0 0 73 73" fill="none" xmlns="http://www.w3.org/2000/svg">
<g id="T_emotes9">
<path id="Vector" d="M47.7383 1.95475C47.6945 1.38524 47.1688 0.947163 46.6431 0.728121C46.0736 0.552888 45.5041 0.596691 44.9346 0.640499C44.7593 0.640499 44.6279 0.684313 44.4965 0.728121C44.3212 0.815738 44.2336 0.990971 44.1898 1.1662C43.7517 2.26141 43.7079 3.44423 43.6203 4.58324C43.5327 5.9413 43.4451 7.29936 43.4013 8.61361C42.6565 8.39457 41.7366 8.43838 40.9918 8.65742C41.2109 7.25555 41.2985 6.02892 41.2109 4.62705C41.167 3.61946 40.9918 2.56806 40.2471 1.91094C39.3709 1.1662 38.0567 1.34143 36.9176 1.56048C36.611 1.60428 36.2605 1.69191 35.9977 1.86714C35.7348 2.08618 35.6034 2.43665 35.472 2.7433C34.7272 4.93372 34.4644 7.25554 34.7272 9.57738C34.771 10.0155 34.8587 10.4535 34.7272 10.8916C34.4644 11.7678 33.4568 12.2059 32.6682 12.6878C30.7407 13.8268 29.4264 16.0172 29.3388 18.2514C29.1636 22.5008 29.1636 26.7064 29.5579 30.9558C29.2074 31.2625 29.2074 31.6129 28.9884 32.0072C27.4113 34.8986 26.8856 38.2718 26.4037 41.5136C26.1846 42.8279 25.7027 44.0545 25.2208 45.3249C25.0894 45.7192 24.9142 46.1135 24.9142 46.5077C24.9142 47.4277 25.5713 48.2163 26.2284 48.8734C26.4475 49.9248 27.3236 50.5819 27.937 51.4581C28.5503 52.378 28.9884 53.4294 29.2074 54.4808C29.4702 55.8827 30.9159 57.0217 31.3102 58.4236C31.7483 59.9131 31.6168 61.534 32.0549 63.0234C32.7121 63.4615 32.9749 64.9072 32.9311 65.6958C32.8873 66.5281 32.8873 67.4043 32.5368 68.149C32.3178 68.5871 32.0111 69.0252 31.7483 69.4195C31.1788 70.2956 30.8283 71.3032 30.7407 72.3108C31.2664 72.7051 32.0549 72.6613 32.6682 72.3984C33.2816 72.1356 33.8073 71.6537 34.2892 71.2156C35.3405 70.2518 36.3919 69.2442 37.4433 68.2804C37.9252 67.7985 38.4509 67.3605 38.8014 66.7471C39.1519 66.1338 39.3709 65.4767 39.1957 64.8196C38.8014 63.1987 37.0053 62.1473 35.691 61.1397C35.6472 60.0007 35.5158 58.7741 35.5158 57.635C35.472 56.3646 35.4282 55.0942 35.1215 53.8675C34.8148 52.6409 34.1139 51.4581 33.0625 50.7571C32.8873 50.6257 32.7559 50.4067 32.6244 50.2314C34.2892 50.1876 35.9539 50.1438 37.6624 50.1C39.5023 50.0562 41.4299 50.0124 43.1384 50.6257C43.3575 50.4505 43.8393 50.5819 44.0146 50.801C44.146 51.02 44.1898 51.3266 44.2336 51.6333C44.3212 52.2904 44.6279 52.9476 44.8907 53.5609C45.1974 54.2618 45.5479 54.9627 46.0298 55.576C46.5555 56.1456 47.3002 56.5836 48.0449 56.5398C48.6583 55.1818 49.0525 54.0428 48.9211 52.5533C48.7459 50.6695 48.7021 49.0924 48.3078 47.2525C48.264 46.9896 48.1326 46.8144 48.1326 46.5077C48.1326 46.3763 48.0888 46.2011 48.0011 46.1573C47.9135 46.1135 47.8259 46.1135 47.6945 46.1135C46.3802 46.2887 45.1098 46.5077 43.7955 46.8144C43.3137 46.9458 42.7441 47.0334 42.3061 46.8144C41.0794 46.2011 39.7214 46.1135 38.4071 45.6316C38.1881 45.544 37.969 45.4563 37.75 45.3687C37.4872 45.2373 37.2681 45.1059 37.0491 44.9306C36.2167 44.4488 35.2967 44.2297 34.3768 44.0107C33.5444 43.8354 32.6244 43.9669 31.9673 44.5364C32.1864 44.1421 32.4054 43.7478 32.6682 43.3974C32.9311 43.0907 33.2378 42.8717 33.5006 42.6088C35.1653 41.2508 36.83 39.8051 38.1443 38.0966C39.4585 36.388 40.5099 34.3729 40.7728 32.2263C41.0794 29.992 40.0718 28.0207 39.1081 26.0055C38.3633 24.4722 39.9404 22.9389 41.3861 22.0189C43.007 20.9675 43.6203 18.9962 44.146 17.1562C44.2336 16.8058 44.2774 16.4115 44.2774 16.0172C45.2412 16.4991 46.3364 16.7181 47.3878 16.6305C47.7821 16.5867 48.1764 16.4991 48.5268 16.2801C49.1402 15.842 49.3592 15.0534 49.3592 14.2649C49.4468 11.2859 47.3878 8.74502 46.6431 5.85368C46.5555 5.4594 46.4678 5.06514 46.5117 4.67086C46.5555 4.27659 46.7745 3.88231 46.9497 3.53185C47.2126 3.22519 47.4316 2.52425 47.7383 1.95475Z" fill="white"/>
</g>
</svg>
