<svg width="72" height="73" viewBox="0 0 72 73" fill="none" xmlns="http://www.w3.org/2000/svg">
<g id="T_emotes14">
<path id="Vector" d="M50.7144 11.4342C51.7755 10.6256 52.584 9.41287 52.8872 8.09904C52.9883 7.74532 52.9883 7.3916 52.9378 7.08841C52.8367 6.68416 52.5335 6.38097 52.2303 6.07778C51.4724 5.37033 50.5628 4.81449 49.5521 4.41024C48.592 5.72406 47.9351 7.29055 47.6319 8.90757C47.3793 10.5246 47.4298 12.3942 46.3181 13.607C45.6612 12.5458 44.6506 11.6868 43.4883 11.1815C42.7809 10.8783 41.9218 10.6256 41.7197 9.86765C41.5176 9.10968 42.124 8.40225 42.6293 7.79587C43.5389 6.63364 44.0947 5.16821 44.1453 3.65226C44.1958 2.94482 44.0947 2.23738 43.6905 1.631C43.1346 0.873021 42.1745 0.56985 41.2144 0.418255C40.5575 0.317192 39.7995 0.266648 39.2942 0.721433C38.991 0.974091 38.8394 1.37834 38.6878 1.73207C37.9804 3.55121 37.2729 5.37035 37.1213 7.29055C35.1001 7.18949 33.0788 7.13895 31.0575 7.03789C29.4911 6.98736 27.6214 6.98735 26.6108 8.20011C26.0549 8.85702 25.8528 9.66553 25.7012 10.474C25.4991 11.3331 25.2969 12.1416 25.0948 13.0006C24.4884 13.0006 23.9831 13.607 23.6294 14.1123C22.9725 14.9714 22.265 15.8809 21.6081 16.74C20.9512 17.5485 20.3448 18.4075 20.0416 19.4181C19.8395 20.1256 19.8395 20.9341 19.8395 21.6921C19.8395 22.6522 19.8395 23.5617 19.8901 24.5218C19.9406 25.9873 20.1932 27.4022 20.1427 28.8676C20.0922 30.0298 20.0922 31.3436 20.9007 32.2027C21.6081 32.9606 22.7704 33.1122 23.8315 33.0617C24.1852 33.0617 24.5895 32.9606 24.7916 32.6574C24.9432 32.4553 24.9432 32.2027 24.9432 31.95C24.9938 30.9394 25.0443 29.8782 24.8422 28.8676C24.6906 28.1096 24.4379 27.4022 24.2863 26.6947C24.1347 25.9873 24.1347 25.2798 24.1347 24.5724C24.1347 23.6628 24.0842 22.7532 24.0842 21.8437C24.0842 21.2878 24.0842 20.7825 24.2358 20.2772C24.3874 19.8224 24.7411 19.4182 25.0948 19.0139C26.1054 17.8517 27.1161 16.74 28.1267 15.6283C27.2171 19.7213 30.2996 23.966 29.1879 27.958C28.6826 29.7772 27.773 31.6973 27.8235 33.6175C27.9751 38.317 28.4299 43.067 30.148 47.4127C30.9565 49.3834 29.2384 51.4552 28.8341 53.527C28.632 54.4871 28.632 55.4472 28.6826 56.4073C28.6826 57.3674 28.6826 58.3275 28.9352 59.2876C29.6427 61.9658 29.2384 64.5429 29.1373 67.3222C29.0868 68.2317 29.0363 69.0908 29.2384 69.9498C29.4405 70.8088 29.9458 71.6679 30.7038 72.0721C31.3607 72.3753 32.0682 72.3753 32.7756 72.3248C32.9272 72.3248 33.0788 72.3248 33.1799 72.2237C33.3315 72.1227 33.382 71.9205 33.4325 71.7689C33.5841 70.9604 33.6347 70.1519 33.4831 69.3434C33.3315 68.636 33.0788 67.9285 32.9272 67.2211C32.4219 65.3514 32.4219 63.3807 32.4219 61.4605C32.4219 60.6015 32.4219 59.6919 32.7251 58.8328C33.2304 57.2664 34.7464 55.9525 34.5442 54.285C34.3926 52.9712 35.2011 52.0111 35.4538 50.7478C35.6054 50.0403 35.757 49.2824 35.8075 48.5749C35.8581 47.7159 35.757 46.8063 35.7065 45.9473C35.5043 43.7744 35.5549 41.551 35.757 39.3276C35.6054 41.1468 35.858 43.0164 36.515 44.7345C36.8687 45.6441 37.273 46.5031 37.5761 47.4127C37.9804 48.7771 37.9298 50.1919 37.9298 51.5563C37.9298 52.9206 37.6772 54.1839 37.6772 55.5483C37.6772 56.5589 37.7783 57.6201 38.3846 58.4791C38.132 60.5509 38.0815 62.6227 37.8288 64.6945C37.7783 65.3514 37.6772 66.0083 37.7277 66.6653C37.7783 67.3727 37.9299 68.0801 38.233 68.7876C38.5362 69.495 38.991 70.2025 39.5974 70.6067C40.2543 71.0615 41.1133 71.2131 41.8208 70.9099C41.9724 70.8089 42.1745 70.7078 42.2756 70.5562C42.5282 70.2025 42.3766 69.6972 42.225 69.2929C41.2144 66.5137 40.7596 63.4312 41.5176 60.5509C42.0229 58.6307 43.0335 56.761 42.8314 54.7903C42.6293 53.1733 43.2357 51.7079 43.2357 50.0909C43.2357 45.6441 44.1958 41.3994 43.7915 36.9526C43.6399 35.083 43.0841 33.2638 42.1745 31.5963C40.5575 28.6654 41.265 25.3809 41.366 22.0458C41.0123 22.6522 41.7702 23.4101 42.4777 23.4607C43.9431 23.5617 45.0548 22.2985 45.9644 21.1362C46.1665 20.833 46.4192 20.5804 46.6213 20.2772C46.7224 20.1761 46.8234 20.0245 46.9245 19.9235C47.6825 18.9128 48.3394 17.8011 48.8952 16.6389C49.2995 15.1735 50.2596 13.0512 50.7144 11.4342Z" fill="white"/>
</g>
</svg>
