<svg width="73" height="73" viewBox="0 0 73 73" fill="none" xmlns="http://www.w3.org/2000/svg">
<g id="T_emotes3">
<path id="Vector" d="M22.961 9.63789C23.8602 9.28822 24.9092 9.53798 25.8583 9.48803C27.5567 9.38813 29.1053 8.28916 30.8037 8.43902C30.9036 8.43902 31.0034 8.43902 31.1034 8.38907C31.1533 8.33912 31.1533 8.23921 31.1533 8.18926C31.2032 6.99039 31.0534 5.74156 31.2033 4.5427C31.3531 3.34383 31.9026 2.095 32.9516 1.44562C33.4511 1.1459 34.0006 1.04599 34.5501 0.99604C36.1486 0.846181 37.847 1.44562 38.7461 2.74439C39.5454 3.89331 39.6453 5.39189 39.3456 6.74062C39.0459 8.08935 38.4464 9.38813 37.8969 10.6369C37.847 10.7369 37.797 10.8867 37.847 11.0366C37.8969 11.1864 37.9969 11.2863 38.0968 11.3363C38.8461 11.9357 39.8451 12.0356 40.6443 12.5352C41.5435 13.1346 42.0431 14.1337 42.5426 15.1327C42.8423 15.7821 43.142 16.4315 43.4917 17.0809C44.0411 18.2298 45.5397 18.6294 46.6887 19.1289C47.8875 19.6285 49.1863 19.7783 50.4351 19.4786C51.1844 19.2788 51.9337 18.8792 52.683 18.6294C53.4323 18.3796 54.3315 18.2797 55.0308 18.6294C56.0798 19.1789 56.3795 20.5776 56.5294 21.7764C56.5793 22.226 56.6293 22.6756 56.3795 23.0253C56.1797 23.325 55.7801 23.4249 55.4304 23.4748C54.4813 23.6247 53.4822 23.5248 52.4832 23.6247C50.8347 23.8245 49.2362 24.6238 47.6377 24.324C46.9884 24.1742 46.3889 23.8745 45.8395 23.6247C44.7405 23.0752 43.6915 22.5257 42.5925 21.9763C42.1429 21.7265 41.6434 21.4767 41.2438 21.1271C40.1948 20.178 39.7952 18.7293 39.4954 17.3306C39.7952 19.5286 38.9959 21.8764 37.3475 23.3749C37.7471 24.7237 37.3974 26.1223 37.1976 27.521C37.0478 28.9197 37.1976 30.5682 38.3965 31.4174C38.7461 31.6671 39.1458 31.817 39.4954 31.9668C40.4945 32.4664 41.3937 33.2157 42.0431 34.1148C43.142 35.7133 44.241 37.5116 45.6396 38.8104C46.339 39.4598 47.1382 40.0592 47.438 40.9584C47.8376 42.2072 47.1382 43.5559 46.1891 44.505C45.7895 44.9546 45.3899 45.6539 44.8903 45.9037C44.4907 46.1035 44.0412 46.2534 43.6915 46.5031C43.192 46.9028 42.9422 47.5022 42.6425 48.0017C41.4935 50.0498 39.3456 51.5983 38.946 53.9461C38.6962 55.4447 39.1458 57.0931 39.3456 58.6417C39.4455 59.2911 39.4455 60.0404 38.946 60.39C38.6962 60.5399 38.4464 60.5898 38.1467 60.6398C37.847 60.6898 37.4973 60.6897 37.1476 60.6897C36.8479 60.6897 36.5482 60.6897 36.2985 60.5399C35.8988 60.2901 35.699 59.8406 35.5492 59.391C35.0496 57.7425 34.6001 56.0941 34.3503 54.3957C34.2004 53.4965 34.65 52.6473 34.8998 51.7482C34.9997 51.3985 35.0996 51.0488 35.2994 50.7491C35.4992 50.3995 35.7989 50.0997 36.0986 49.85C36.8479 49.1506 37.5972 48.4513 38.3465 47.7519C38.6462 46.4032 38.946 45.0545 39.6953 43.8556C40.0449 43.2562 39.6453 42.6068 39.7452 41.9574C38.5963 41.1082 36.798 41.5578 35.7989 40.5088C35.6491 40.3589 35.5492 40.2091 35.3494 40.1591C35.2494 40.1591 35.1496 40.1591 35.0496 40.1591C34.5501 40.259 34.0506 40.3589 33.601 40.4588C33.8008 41.7576 33.601 43.1063 33.5011 44.4551C33.4012 46.1535 33.3512 48.0017 33.3013 49.7001C33.2513 51.2486 33.2014 52.8471 32.8517 54.3457C32.502 55.8443 31.7527 57.3429 30.6038 58.342C30.0543 58.8415 29.5049 59.6907 29.1552 60.3401C28.8555 60.8396 28.7056 61.3391 28.5558 61.8886C27.8065 64.9857 28.7556 68.3825 30.9535 70.6803C31.3032 71.03 31.6528 71.4796 31.453 71.9292C31.3531 72.079 31.2033 72.1789 31.0534 72.2788C29.7047 73.0781 28.0562 73.178 26.6076 72.6285C25.159 72.0291 24.06 70.7802 23.6104 69.2816C23.5105 68.882 23.6104 68.4824 23.7603 68.0828C24.06 67.1836 24.3597 66.2845 24.7094 65.3853C25.2089 63.8867 24.9591 62.2383 24.9092 60.6398C24.8592 59.8406 24.8093 59.0913 24.9092 58.292C25.0091 57.5427 25.2589 56.7435 25.8084 56.194C25.9083 55.145 26.3578 54.2458 27.0572 53.4466C27.4568 52.997 27.3069 52.3976 27.4068 51.7981C27.6566 50.3495 27.3569 48.8509 26.6076 47.6021C26.0082 46.653 25.5086 45.6539 25.6585 44.555C25.8583 43.1563 25.4587 41.7576 25.5086 40.309C25.5086 39.3599 25.5586 38.4108 25.8583 37.5116C26.3578 35.9631 25.8084 34.1648 25.8084 32.5663C25.8084 31.4673 25.7084 29.9188 25.7584 28.8198C25.8083 28.1205 25.8083 27.3212 25.3588 26.7717C24.4596 25.7227 24.1599 24.374 23.9601 23.0253C23.8602 22.3259 23.8102 21.5766 23.4606 20.9272C22.5614 19.2788 19.9639 19.1289 19.2146 17.4305C18.8649 16.6812 18.9648 15.882 19.1147 15.0828C19.4643 14.833 19.7141 14.5832 19.9639 14.2336C20.9629 12.8349 21.2626 10.2873 22.961 9.63789Z" fill="white"/>
</g>
</svg>
