<svg width="200" height="193" viewBox="0 0 200 193" fill="none" xmlns="http://www.w3.org/2000/svg">
<g id="4">
<g id="Ellipse 15">
<path d="M0.75 163.5C67.4964 163.5 131.555 137.202 179.047 90.3022L89.8987 0.026123C66.1525 23.4758 34.1232 36.625 0.750013 36.625L0.75 163.5Z" fill="#41CCB1" fill-opacity="0.05"/>
<path d="M0.75 163.5C67.4964 163.5 131.555 137.202 179.047 90.3022L89.8987 0.026123C66.1525 23.4758 34.1232 36.625 0.750013 36.625L0.75 163.5Z" fill="url(#paint0_linear_11768_20763)" fill-opacity="0.15"/>
<path d="M89.8936 0.732518L178.34 90.2974C131.096 136.768 67.518 162.869 1.25 163L1.25001 37.124C34.4079 36.9941 66.2093 23.9384 89.8936 0.732518Z" stroke="#41CCB1" stroke-opacity="0.06"/>
<path d="M89.8936 0.732518L178.34 90.2974C131.096 136.768 67.518 162.869 1.25 163L1.25001 37.124C34.4079 36.9941 66.2093 23.9384 89.8936 0.732518Z" stroke="url(#paint1_linear_11768_20763)" stroke-opacity="0.25"/>
</g>
<path id="Ellipse 23" d="M0.75 192.5C75.1245 192.5 146.504 163.196 199.424 110.937L179.557 90.8179C131.929 137.851 67.6871 164.225 0.750003 164.225L0.75 192.5Z" fill="#41CCB1" fill-opacity="0.08"/>
</g>
<defs>
<linearGradient id="paint0_linear_11768_20763" x1="222.528" y1="137.795" x2="75.8989" y2="-371.001" gradientUnits="userSpaceOnUse">
<stop stop-color="#41CCB1"/>
<stop offset="1" stop-color="#41CCB1" stop-opacity="0"/>
</linearGradient>
<linearGradient id="paint1_linear_11768_20763" x1="106.25" y1="138.75" x2="9.75003" y2="-61.25" gradientUnits="userSpaceOnUse">
<stop stop-color="#41CCB1"/>
<stop offset="1" stop-color="#41CCB1" stop-opacity="0"/>
</linearGradient>
</defs>
</svg>
