<svg width="193" height="199" viewBox="0 0 193 199" fill="none" xmlns="http://www.w3.org/2000/svg">
<g id="2">
<g id="Ellipse 15">
<path d="M163.474 198.75C163.474 132.004 137.175 67.9449 90.2761 20.4525L0 109.601C23.4497 133.347 36.5989 165.377 36.5989 198.75H163.474Z" fill="#41CCB1" fill-opacity="0.15"/>
<path d="M163.474 198.75C163.474 132.004 137.175 67.9449 90.2761 20.4525L0 109.601C23.4497 133.347 36.5989 165.377 36.5989 198.75H163.474Z" fill="url(#paint0_linear_11769_21048)" fill-opacity="0.15"/>
<path d="M0.706395 109.606L90.2713 21.16C136.742 68.4038 162.843 131.982 162.973 198.25H37.0979C36.9679 165.092 23.9123 133.291 0.706395 109.606Z" stroke="#41CCB1" stroke-opacity="0.06"/>
<path d="M0.706395 109.606L90.2713 21.16C136.742 68.4038 162.843 131.982 162.973 198.25H37.0979C36.9679 165.092 23.9123 133.291 0.706395 109.606Z" stroke="url(#paint1_linear_11769_21048)" stroke-opacity="0.25"/>
</g>
<path id="Ellipse 23" d="M192.474 198.75C192.474 124.375 163.17 52.9958 110.911 0.0756836L90.792 19.9431C137.825 67.5712 164.199 131.813 164.199 198.75H192.474Z" fill="#41CCB1" fill-opacity="0.4"/>
</g>
<defs>
<linearGradient id="paint0_linear_11769_21048" x1="137.769" y1="-23.0276" x2="-371.027" y2="123.601" gradientUnits="userSpaceOnUse">
<stop stop-color="#41CCB1"/>
<stop offset="1" stop-color="#41CCB1" stop-opacity="0"/>
</linearGradient>
<linearGradient id="paint1_linear_11769_21048" x1="138.724" y1="93.2499" x2="-61.2761" y2="189.75" gradientUnits="userSpaceOnUse">
<stop stop-color="#41CCB1"/>
<stop offset="1" stop-color="#41CCB1" stop-opacity="0"/>
</linearGradient>
</defs>
</svg>
