<svg width="200" height="194" viewBox="0 0 200 194" fill="none" xmlns="http://www.w3.org/2000/svg">
<g id="5">
<g id="Ellipse 15">
<path d="M21.3213 90.2972C68.5181 137.494 132.41 164.194 199.155 164.614L199.952 37.7413C166.58 37.5316 134.634 24.1814 111.035 0.583008L21.3213 90.2972Z" fill="#41CCB1" fill-opacity="0.05"/>
<path d="M21.3213 90.2972C68.5181 137.494 132.41 164.194 199.155 164.614L199.952 37.7413C166.58 37.5316 134.634 24.1814 111.035 0.583008L21.3213 90.2972Z" fill="url(#paint0_linear_11768_20760)" fill-opacity="0.15"/>
<path d="M198.658 164.11C132.393 163.563 68.9797 137.063 22.0287 90.2968L111.036 1.28942C134.574 24.6436 166.293 37.8989 199.449 38.2372L198.658 164.11Z" stroke="#41CCB1" stroke-opacity="0.06"/>
<path d="M198.658 164.11C132.393 163.563 68.9797 137.063 22.0287 90.2968L111.036 1.28942C134.574 24.6436 166.293 37.8989 199.449 38.2372L198.658 164.11Z" stroke="url(#paint1_linear_11768_20760)" stroke-opacity="0.25"/>
</g>
<path id="Ellipse 23" d="M0.81543 110.803C53.4062 163.394 124.6 193.146 198.973 193.613L199.151 165.339C132.215 164.918 68.1405 138.141 20.8089 90.8098L0.81543 110.803Z" fill="#41CCB1" fill-opacity="0.08"/>
</g>
<defs>
<linearGradient id="paint0_linear_11768_20760" x1="196.318" y1="228.942" x2="452.409" y2="-234.514" gradientUnits="userSpaceOnUse">
<stop stop-color="#41CCB1"/>
<stop offset="1" stop-color="#41CCB1" stop-opacity="0"/>
</linearGradient>
<linearGradient id="paint1_linear_11768_20760" x1="113.422" y1="147.396" x2="186.608" y2="-62.261" gradientUnits="userSpaceOnUse">
<stop stop-color="#41CCB1"/>
<stop offset="1" stop-color="#41CCB1" stop-opacity="0"/>
</linearGradient>
</defs>
</svg>
